<svg width="16" height="19" viewBox="0 0 16 19" fill="none" xmlns="http://www.w3.org/2000/svg">
<path d="M15.9997 4.42953C14.8249 4.42949 13.6983 3.9628 12.8676 3.1321C12.037 2.30141 11.5703 1.17476 11.5703 0H8.40574V12.392C8.40515 12.957 8.22676 13.5075 7.89584 13.9654C7.56493 14.4233 7.09828 14.7655 6.56204 14.9434C6.02579 15.1213 5.44716 15.1259 4.90815 14.9566C4.36914 14.7873 3.89709 14.4526 3.55891 14C3.22073 13.5474 3.03358 12.9999 3.02397 12.435C3.01437 11.8701 3.1828 11.3165 3.5054 10.8526C3.828 10.3888 4.28839 10.0383 4.82134 9.85074C5.35428 9.66319 5.93274 9.64813 6.47472 9.8077V6.73142C5.32292 6.57611 4.15114 6.77589 3.11587 7.30407C2.08059 7.83225 1.23109 8.66369 0.680794 9.68739C0.1305 10.7111 -0.0943933 11.8783 0.036145 13.0332C0.166683 14.188 0.646439 15.2756 1.41135 16.1506C2.17626 17.0257 3.18992 17.6465 4.31698 17.9303C5.44403 18.214 6.63083 18.1472 7.7189 17.7387C8.80698 17.3302 9.74454 16.5995 10.4064 15.6442C11.0682 14.6888 11.4229 13.5543 11.423 12.392L11.5153 6.12825C12.8155 7.08277 14.387 7.59635 16 7.59395L15.9997 4.42953Z" fill="white" fill-opacity="0.96"/>
</svg>

