<svg width="22" height="13" viewBox="0 0 22 13" fill="none" xmlns="http://www.w3.org/2000/svg">
<path d="M11.9128 13C4.9331 13 0.952011 8.12012 0.786133 0H4.28234C4.39718 5.95996 6.97468 8.48448 9.01626 9.005V0H12.3083V5.14014C14.3244 4.91892 16.4425 2.57658 17.1571 0H20.4491C20.1799 1.33629 19.6431 2.60153 18.8725 3.71661C18.1018 4.83168 17.1139 5.77259 15.9704 6.48048C17.2468 7.1273 18.3742 8.04282 19.2782 9.16662C20.1822 10.2904 20.8422 11.597 21.2147 13H17.5909C17.2565 11.7814 16.5769 10.6905 15.6371 9.86405C14.6974 9.03764 13.5394 8.51247 12.3083 8.35435V13H11.9128Z" fill="white" fill-opacity="0.96"/>
</svg>
