<svg width="20" height="14" viewBox="0 0 20 14" fill="none" xmlns="http://www.w3.org/2000/svg">
<path fill-rule="evenodd" clip-rule="evenodd" d="M2.05681 13.5864C1.70021 13.478 1.37483 13.2853 1.10814 13.0245C0.841454 12.7637 0.641275 12.4424 0.524498 12.0878C-0.142799 10.2549 -0.340517 2.60114 0.944647 1.0902C1.37237 0.598686 1.97627 0.296071 2.62525 0.248042C6.07295 -0.123499 16.725 -0.0739598 17.9484 0.371889C18.2924 0.483768 18.6068 0.672239 18.8679 0.923181C19.129 1.17412 19.33 1.48103 19.456 1.8209C20.185 3.71576 20.2097 10.6017 19.3571 12.4222C19.1309 12.8961 18.7522 13.28 18.282 13.5121C16.9968 14.1561 3.76212 14.1437 2.05681 13.5864ZM7.53111 9.9948L13.7098 6.77478L7.53111 3.52999V9.9948Z" fill="white" fill-opacity="0.96"/>
</svg>
