<svg width="20" height="16" viewBox="0 0 20 16" fill="none" xmlns="http://www.w3.org/2000/svg">
<path d="M2.80039 0.799805C2.16387 0.799805 1.55342 1.05266 1.10333 1.50275C0.653247 1.95284 0.400391 2.56328 0.400391 3.1998V4.3998H19.6004V3.1998C19.6004 2.56328 19.3475 1.95284 18.8974 1.50275C18.4474 1.05266 17.8369 0.799805 17.2004 0.799805H2.80039Z" fill="currentColor" fill-opacity="0.54"/>
<path fill-rule="evenodd" clip-rule="evenodd" d="M19.6004 6.7998H0.400391V12.7998C0.400391 13.4363 0.653247 14.0468 1.10333 14.4969C1.55342 14.9469 2.16387 15.1998 2.80039 15.1998H17.2004C17.8369 15.1998 18.4474 14.9469 18.8974 14.4969C19.3475 14.0468 19.6004 13.4363 19.6004 12.7998V6.7998ZM2.80039 11.5998C2.80039 11.2815 2.92682 10.9763 3.15186 10.7513C3.37691 10.5262 3.68213 10.3998 4.00039 10.3998H5.20039C5.51865 10.3998 5.82387 10.5262 6.04892 10.7513C6.27396 10.9763 6.40039 11.2815 6.40039 11.5998C6.40039 11.9181 6.27396 12.2233 6.04892 12.4483C5.82387 12.6734 5.51865 12.7998 5.20039 12.7998H4.00039C3.68213 12.7998 3.37691 12.6734 3.15186 12.4483C2.92682 12.2233 2.80039 11.9181 2.80039 11.5998ZM8.80039 10.3998C8.48213 10.3998 8.17691 10.5262 7.95186 10.7513C7.72682 10.9763 7.60039 11.2815 7.60039 11.5998C7.60039 11.9181 7.72682 12.2233 7.95186 12.4483C8.17691 12.6734 8.48213 12.7998 8.80039 12.7998H10.0004C10.3187 12.7998 10.6239 12.6734 10.8489 12.4483C11.074 12.2233 11.2004 11.9181 11.2004 11.5998C11.2004 11.2815 11.074 10.9763 10.8489 10.7513C10.6239 10.5262 10.3187 10.3998 10.0004 10.3998H8.80039Z" fill="currentColor" fill-opacity="0.54"/>
</svg>
