<svg width="19" height="20" viewBox="0 0 19 20" fill="none" xmlns="http://www.w3.org/2000/svg">
<path d="M8.32747 20C7.87841 20 7.49173 19.85 7.16741 19.55C6.84309 19.25 6.64767 18.8833 6.58114 18.45L6.35662 16.8C6.14041 16.7167 5.93667 16.6167 5.7454 16.5C5.55414 16.3833 5.36703 16.2583 5.18409 16.125L3.63734 16.775C3.22155 16.9583 2.80576 16.975 2.38997 16.825C1.97418 16.675 1.64986 16.4083 1.41702 16.025L0.244485 13.975C0.0116422 13.5917 -0.0548845 13.1833 0.0449055 12.75C0.144695 12.3167 0.369223 11.9583 0.718487 11.675L2.0407 10.675C2.02407 10.5583 2.01576 10.4458 2.01576 10.3375V9.6625C2.01576 9.55417 2.02407 9.44167 2.0407 9.325L0.718487 8.325C0.369223 8.04167 0.144695 7.68333 0.0449055 7.25C-0.0548845 6.81667 0.0116422 6.40833 0.244485 6.025L1.41702 3.975C1.64986 3.59167 1.97418 3.325 2.38997 3.175C2.80576 3.025 3.22155 3.04167 3.63734 3.225L5.18409 3.875C5.36703 3.74167 5.5583 3.61667 5.75788 3.5C5.95746 3.38333 6.15704 3.28333 6.35662 3.2L6.58114 1.55C6.64767 1.11667 6.84309 0.75 7.16741 0.45C7.49173 0.15 7.87841 0 8.32747 0H10.6725C11.1216 0 11.5083 0.15 11.8326 0.45C12.1569 0.75 12.3523 1.11667 12.4189 1.55L12.6434 3.2C12.8596 3.28333 13.0633 3.38333 13.2546 3.5C13.4459 3.61667 13.633 3.74167 13.8159 3.875L15.3627 3.225C15.7784 3.04167 16.1942 3.025 16.61 3.175C17.0258 3.325 17.3501 3.59167 17.583 3.975L18.7555 6.025C18.9884 6.40833 19.0549 6.81667 18.9551 7.25C18.8553 7.68333 18.6308 8.04167 18.2815 8.325L16.9593 9.325C16.9759 9.44167 16.9842 9.55417 16.9842 9.6625V10.3375C16.9842 10.4458 16.9676 10.5583 16.9343 10.675L18.2566 11.675C18.6058 11.9583 18.8304 12.3167 18.9301 12.75C19.0299 13.1833 18.9634 13.5917 18.7306 13.975L17.5331 16.025C17.3002 16.4083 16.9759 16.675 16.5601 16.825C16.1443 16.975 15.7286 16.9583 15.3128 16.775L13.8159 16.125C13.633 16.2583 13.4417 16.3833 13.2421 16.5C13.0425 16.6167 12.843 16.7167 12.6434 16.8L12.4189 18.45C12.3523 18.8833 12.1569 19.25 11.8326 19.55C11.5083 19.85 11.1216 20 10.6725 20H8.32747ZM9.54989 13.5C10.5145 13.5 11.3378 13.1583 12.0197 12.475C12.7016 11.7917 13.0425 10.9667 13.0425 10C13.0425 9.03333 12.7016 8.20833 12.0197 7.525C11.3378 6.84167 10.5145 6.5 9.54989 6.5C8.56863 6.5 7.7412 6.84167 7.06762 7.525C6.39404 8.20833 6.05725 9.03333 6.05725 10C6.05725 10.9667 6.39404 11.7917 7.06762 12.475C7.7412 13.1583 8.56863 13.5 9.54989 13.5Z" fill="currentColor" fill-opacity="0.54"/>
</svg>
