<svg width="24" height="24" viewBox="0 0 24 24" fill="none" xmlns="http://www.w3.org/2000/svg">
<path d="M5.99998 3.60001C5.36346 3.60001 4.75301 3.85286 4.30292 4.30295C3.85283 4.75304 3.59998 5.36349 3.59998 6.00001V8.40001C3.59998 9.03653 3.85283 9.64697 4.30292 10.0971C4.75301 10.5471 5.36346 10.8 5.99998 10.8H8.39998C9.03649 10.8 9.64694 10.5471 10.097 10.0971C10.5471 9.64697 10.8 9.03653 10.8 8.40001V6.00001C10.8 5.36349 10.5471 4.75304 10.097 4.30295C9.64694 3.85286 9.03649 3.60001 8.39998 3.60001H5.99998ZM5.99998 13.2C5.36346 13.2 4.75301 13.4529 4.30292 13.9029C3.85283 14.353 3.59998 14.9635 3.59998 15.6V18C3.59998 18.6365 3.85283 19.247 4.30292 19.6971C4.75301 20.1471 5.36346 20.4 5.99998 20.4H8.39998C9.03649 20.4 9.64694 20.1471 10.097 19.6971C10.5471 19.247 10.8 18.6365 10.8 18V15.6C10.8 14.9635 10.5471 14.353 10.097 13.9029C9.64694 13.4529 9.03649 13.2 8.39998 13.2H5.99998ZM13.2 6.00001C13.2 5.36349 13.4528 4.75304 13.9029 4.30295C14.353 3.85286 14.9635 3.60001 15.6 3.60001H18C18.6365 3.60001 19.2469 3.85286 19.697 4.30295C20.1471 4.75304 20.4 5.36349 20.4 6.00001V8.40001C20.4 9.03653 20.1471 9.64697 19.697 10.0971C19.2469 10.5471 18.6365 10.8 18 10.8H15.6C14.9635 10.8 14.353 10.5471 13.9029 10.0971C13.4528 9.64697 13.2 9.03653 13.2 8.40001V6.00001ZM16.8 13.2C17.1182 13.2 17.4235 13.3264 17.6485 13.5515C17.8735 13.7765 18 14.0817 18 14.4V15.6H19.2C19.5182 15.6 19.8235 15.7264 20.0485 15.9515C20.2735 16.1765 20.4 16.4817 20.4 16.8C20.4 17.1183 20.2735 17.4235 20.0485 17.6485C19.8235 17.8736 19.5182 18 19.2 18H18V19.2C18 19.5183 17.8735 19.8235 17.6485 20.0485C17.4235 20.2736 17.1182 20.4 16.8 20.4C16.4817 20.4 16.1765 20.2736 15.9514 20.0485C15.7264 19.8235 15.6 19.5183 15.6 19.2V18H14.4C14.0817 18 13.7765 17.8736 13.5514 17.6485C13.3264 17.4235 13.2 17.1183 13.2 16.8C13.2 16.4817 13.3264 16.1765 13.5514 15.9515C13.7765 15.7264 14.0817 15.6 14.4 15.6H15.6V14.4C15.6 14.0817 15.7264 13.7765 15.9514 13.5515C16.1765 13.3264 16.4817 13.2 16.8 13.2Z" fill="white" fill-opacity="0.54"/>
</svg>
