<svg width="24" height="24" viewBox="0 0 24 24" fill="none" xmlns="http://www.w3.org/2000/svg">
<path d="M2.40002 6.00001C2.40002 5.36349 2.65288 4.75304 3.10297 4.30295C3.55306 3.85286 4.1635 3.60001 4.80002 3.60001H13.2C13.8365 3.60001 14.447 3.85286 14.8971 4.30295C15.3472 4.75304 15.6 5.36349 15.6 6.00001V10.8C15.6 11.4365 15.3472 12.047 14.8971 12.4971C14.447 12.9471 13.8365 13.2 13.2 13.2H10.8L7.20002 16.8V13.2H4.80002C4.1635 13.2 3.55306 12.9471 3.10297 12.4971C2.65288 12.047 2.40002 11.4365 2.40002 10.8V6.00001Z" fill="white" fill-opacity="0.54"/>
<path d="M18 8.39999V10.8C18 12.073 17.4943 13.2939 16.5942 14.1941C15.694 15.0943 14.4731 15.6 13.2 15.6H11.7936L9.67444 17.7204C10.0104 17.8992 10.3932 18 10.8 18H13.2L16.8 21.6V18H19.2C19.8366 18 20.447 17.7471 20.8971 17.297C21.3472 16.847 21.6 16.2365 21.6 15.6V10.8C21.6 10.1635 21.3472 9.55302 20.8971 9.10294C20.447 8.65285 19.8366 8.39999 19.2 8.39999H18Z" fill="white" fill-opacity="0.54"/>
</svg>
