<svg width="75" height="26" viewBox="0 0 75 26" fill="none" xmlns="http://www.w3.org/2000/svg">
<g clip-path="url(#clip0_3309_7089)">
<path d="M71.4738 8.41026L67.2473 7.44011L66.4925 7.1416L47.0957 7.29086V16.5446L71.4738 16.6192V8.41026Z" fill="white"/>
<path d="M63.5487 15.7239C63.6701 15.406 63.7129 15.0641 63.6735 14.7266C63.6342 14.3891 63.5137 14.0657 63.3223 13.7836C63.1256 13.5505 62.8844 13.358 62.6125 13.2171C62.3405 13.0763 62.0431 12.9898 61.7373 12.9627L48.6048 12.8134C48.5294 12.8134 48.4539 12.7388 48.3784 12.7388C48.3608 12.7258 48.3466 12.7089 48.3368 12.6895C48.3269 12.67 48.3218 12.6486 48.3218 12.6269C48.3218 12.6052 48.3269 12.5837 48.3368 12.5643C48.3466 12.5449 48.3608 12.528 48.3784 12.5149C48.4539 12.3657 48.5294 12.2911 48.6803 12.2911L61.8883 12.1418C62.7268 12.0498 63.5254 11.7386 64.2019 11.2402C64.8784 10.7417 65.4084 10.0741 65.7374 9.30598L66.4922 7.36568C66.4922 7.29106 66.5676 7.21643 66.4922 7.1418C66.0819 5.33465 65.0861 3.70934 63.6563 2.51285C62.2264 1.31635 60.4407 0.614079 58.5703 0.512744C56.7 0.411409 54.8473 0.916552 53.2938 1.95141C51.7403 2.98627 50.5709 4.49428 49.9634 6.24628C49.1746 5.68929 48.2126 5.42505 47.2463 5.50001C46.3595 5.59778 45.5328 5.99087 44.9019 6.61471C44.2709 7.23855 43.8734 8.05604 43.7745 8.93285C43.7243 9.38165 43.7498 9.83559 43.85 10.2761C42.4152 10.3153 41.0525 10.9065 40.0517 11.9239C39.0509 12.9413 38.4911 14.3046 38.4913 15.7239C38.4789 15.9996 38.5043 16.2758 38.5668 16.5448C38.5703 16.603 38.5952 16.658 38.637 16.6993C38.6787 16.7406 38.7343 16.7652 38.7932 16.7687H63.0204C63.1713 16.7687 63.3223 16.694 63.3223 16.5448L63.5487 15.7239Z" fill="#F48120"/>
<path d="M67.7006 7.36523H67.3233C67.2478 7.36523 67.1723 7.43986 67.0968 7.51449L66.5685 9.30553C66.4471 9.62337 66.4043 9.96532 66.4437 10.3028C66.4831 10.6404 66.6035 10.9637 66.7949 11.2458C66.9916 11.479 67.2328 11.6715 67.5048 11.8123C67.7767 11.9532 68.0741 12.0396 68.3799 12.0667L71.1724 12.216C71.2479 12.216 71.3234 12.2906 71.3989 12.2906C71.4164 12.3036 71.4307 12.3205 71.4405 12.34C71.4503 12.3594 71.4555 12.3808 71.4555 12.4025C71.4555 12.4243 71.4503 12.4457 71.4405 12.4651C71.4307 12.4846 71.4164 12.5015 71.3989 12.5145C71.3234 12.6637 71.2479 12.7384 71.097 12.7384L68.229 12.8876C67.3904 12.9796 66.5918 13.2909 65.9153 13.7893C65.2388 14.2877 64.7088 14.9553 64.3798 15.7234L64.2288 16.3951C64.1534 16.4697 64.2288 16.619 64.3798 16.619H74.3423C74.3731 16.6233 74.4045 16.6205 74.4339 16.6108C74.4634 16.6011 74.4902 16.5847 74.5122 16.563C74.5341 16.5413 74.5507 16.5148 74.5605 16.4856C74.5703 16.4565 74.5732 16.4255 74.5688 16.3951C74.7485 15.7628 74.8498 15.1113 74.8707 14.4548C74.8587 12.5782 74.0994 10.7818 72.7574 9.45479C71.4153 8.12779 69.5985 7.37706 67.7006 7.36523Z" fill="#FAAD3F"/>
<path d="M9.13785 19.4554H10.7983V23.9331H13.6663V25.351H9.13785V19.4554ZM15.4022 22.3659C15.4022 21.9514 15.4873 21.5412 15.6524 21.1601C15.8174 20.7791 16.059 20.4351 16.3624 20.149C16.6658 19.863 17.0248 19.6408 17.4176 19.4959C17.8104 19.351 18.2288 19.2865 18.6476 19.3062C19.0624 19.2877 19.4767 19.3536 19.8647 19.4999C20.2528 19.6461 20.6063 19.8696 20.9035 20.1564C21.2006 20.4433 21.4351 20.7874 21.5923 21.1674C21.7495 21.5475 21.8262 21.9554 21.8175 22.3659C21.8174 22.7804 21.7323 23.1906 21.5673 23.5717C21.4022 23.9527 21.1607 24.2967 20.8573 24.5828C20.5539 24.8688 20.1949 25.091 19.8021 25.2359C19.4093 25.3808 18.9909 25.4453 18.5721 25.4256C18.1588 25.4377 17.7474 25.3675 17.3622 25.2189C16.977 25.0704 16.626 24.8467 16.3302 24.5612C16.0344 24.2756 15.7997 23.9341 15.6403 23.5569C15.4808 23.1797 15.3999 22.7747 15.4022 22.3659ZM20.157 22.3659C20.1718 22.159 20.1441 21.9513 20.0754 21.7554C20.0067 21.5594 19.8985 21.3792 19.7574 21.2258C19.6163 21.0723 19.4452 20.9487 19.2545 20.8625C19.0637 20.7763 18.8573 20.7292 18.6476 20.7241C18.2406 20.7437 17.8568 20.9174 17.5758 21.2092C17.2948 21.5009 17.1381 21.8884 17.1381 22.2913C17.1381 22.6942 17.2948 23.0816 17.5758 23.3734C17.8568 23.6651 18.2406 23.8388 18.6476 23.8584C19.5533 24.0077 20.157 23.2614 20.157 22.3659ZM23.8553 22.739V19.4554H25.5157V22.739C25.5157 23.5599 25.9685 24.0077 26.6478 24.0077C26.8064 24.0207 26.966 23.9981 27.1146 23.9416C27.2632 23.8851 27.3969 23.7961 27.5057 23.6812C27.6146 23.5664 27.6958 23.4287 27.7433 23.2785C27.7908 23.1283 27.8033 22.9694 27.7799 22.8137V19.4554H29.4403V22.739C29.4403 24.6793 28.3082 25.5002 26.6478 25.5002C24.9119 25.4256 23.8553 24.6047 23.8553 22.739ZM31.931 19.4554H34.2707C36.3839 19.4554 37.667 20.6495 37.667 22.3659C37.667 24.0823 36.3839 25.351 34.2707 25.351H32.0065V19.4554H31.931ZM34.2707 23.8584C34.481 23.8783 34.6932 23.8545 34.8937 23.7885C35.0941 23.7225 35.2784 23.6158 35.4348 23.4753C35.5911 23.3348 35.716 23.1635 35.8015 22.9725C35.8869 22.7814 35.9311 22.5748 35.9311 22.3659C35.9311 22.157 35.8869 21.9504 35.8015 21.7593C35.716 21.5683 35.5911 21.397 35.4348 21.2565C35.2784 21.116 35.0941 21.0093 34.8937 20.9433C34.6932 20.8773 34.481 20.8535 34.2707 20.8734H33.5914V23.8584H34.2707ZM40.0067 19.4554H44.7616V20.8734H41.6671V21.8435H44.4597V23.1868H41.6671V25.351H40.0067V19.4554ZM47.1013 19.4554H48.7617V23.9331H51.6297V25.351H47.1013V19.4554ZM55.9317 19.3808H57.5921L60.1582 25.351H58.3469L57.894 24.3062H55.5543L55.1015 25.351H53.3656L55.9317 19.3808ZM57.4412 23.0375L56.7619 21.3957L56.0827 23.0375H57.4412ZM62.2715 19.4554H65.0641C65.4204 19.4269 65.7788 19.4718 66.1166 19.5874C66.4544 19.703 66.7642 19.8868 67.0264 20.1271C67.2426 20.3576 67.3995 20.6363 67.4839 20.9394C67.5682 21.2426 67.5774 21.5614 67.5108 21.8689C67.4442 22.1763 67.3036 22.4634 67.1011 22.7058C66.8985 22.9481 66.6399 23.1387 66.3471 23.2614L67.7811 25.351H65.8943L64.6867 23.5599H63.9319V25.351H62.2715V19.4554ZM64.9886 22.2913C65.5169 22.2913 65.8943 21.9928 65.8943 21.6196C65.8943 21.1719 65.5169 20.948 64.9886 20.948H63.9319V22.3659H64.9886V22.2913ZM69.8944 19.4554H74.7247V20.7987H71.5548V21.6943H74.4228V23.0375H71.5548V23.9331H74.8002V25.351H69.8944V19.4554ZM5.51509 23.1122C5.40126 23.3759 5.21212 23.6011 4.97082 23.7601C4.72953 23.9192 4.44655 24.0052 4.15656 24.0077C3.74958 23.988 3.36584 23.8144 3.08483 23.5226C2.80382 23.2309 2.64708 22.8434 2.64708 22.4405C2.64708 22.0376 2.80382 21.6502 3.08483 21.3584C3.36584 21.0667 3.74958 20.893 4.15656 20.8734C4.46522 20.8792 4.76541 20.9742 5.02019 21.1465C5.27497 21.3189 5.47323 21.5612 5.59057 21.8435H7.32647C7.17797 21.1287 6.77803 20.489 6.19768 20.0381C5.61733 19.5872 4.89414 19.3544 4.15656 19.3808C3.73936 19.3674 3.32363 19.4363 2.93364 19.5834C2.54365 19.7306 2.1872 19.9531 1.88509 20.2379C1.58299 20.5227 1.34128 20.8642 1.17406 21.2423C1.00685 21.6205 0.917485 22.0278 0.911181 22.4405C0.908858 22.8493 0.989831 23.2544 1.14927 23.6315C1.30871 24.0087 1.54335 24.3502 1.83919 24.6358C2.13502 24.9213 2.486 25.1451 2.87118 25.2936C3.25636 25.4421 3.66784 25.5124 4.08109 25.5002C4.80221 25.505 5.50458 25.2732 6.0782 24.8411C6.65182 24.4089 7.06428 23.8009 7.251 23.1122H5.51509Z" fill="white"/>
</g>
<defs>
<clipPath id="clip0_3309_7089">
<rect width="75" height="25" fill="white" transform="translate(0 0.5)"/>
</clipPath>
</defs>
</svg>
