<svg width="24" height="24" viewBox="0 0 24 24" fill="none" xmlns="http://www.w3.org/2000/svg">
<path fill-rule="evenodd" clip-rule="evenodd" d="M4.80017 4.80001C4.80017 4.16349 5.05303 3.55304 5.50311 3.10295C5.9532 2.65287 6.56365 2.40001 7.20017 2.40001H12.7034C13.3398 2.40015 13.9502 2.65309 14.4002 3.10321L18.497 7.20001C18.9471 7.64999 19.2 8.26034 19.2002 8.89681V19.2C19.2002 19.8365 18.9473 20.447 18.4972 20.8971C18.0471 21.3472 17.4367 21.6 16.8002 21.6H7.20017C6.56365 21.6 5.9532 21.3472 5.50311 20.8971C5.05303 20.447 4.80017 19.8365 4.80017 19.2V4.80001ZM7.20017 12C7.20017 11.6817 7.3266 11.3765 7.55164 11.1515C7.77669 10.9264 8.08191 10.8 8.40017 10.8H15.6002C15.9184 10.8 16.2237 10.9264 16.4487 11.1515C16.6737 11.3765 16.8002 11.6817 16.8002 12C16.8002 12.3183 16.6737 12.6235 16.4487 12.8485C16.2237 13.0736 15.9184 13.2 15.6002 13.2H8.40017C8.08191 13.2 7.77669 13.0736 7.55164 12.8485C7.3266 12.6235 7.20017 12.3183 7.20017 12ZM8.40017 15.6C8.08191 15.6 7.77669 15.7264 7.55164 15.9515C7.3266 16.1765 7.20017 16.4817 7.20017 16.8C7.20017 17.1183 7.3266 17.4235 7.55164 17.6485C7.77669 17.8736 8.08191 18 8.40017 18H15.6002C15.9184 18 16.2237 17.8736 16.4487 17.6485C16.6737 17.4235 16.8002 17.1183 16.8002 16.8C16.8002 16.4817 16.6737 16.1765 16.4487 15.9515C16.2237 15.7264 15.9184 15.6 15.6002 15.6H8.40017Z" fill="white" fill-opacity="0.54"/>
</svg>
