<svg width="10" height="6" viewBox="0 0 10 6" fill="none" xmlns="http://www.w3.org/2000/svg">
<path d="M4.69573 5.04401L4.69579 5.04406C4.77527 5.11962 4.88823 5.16626 5.01104 5.16634L4.69573 5.04401ZM4.69573 5.04401L0.962401 1.49572L0.962453 1.49566M4.69573 5.04401L0.962453 1.49566M0.962453 1.49566L0.956065 1.4898M0.962453 1.49566L0.956065 1.4898M0.956065 1.4898C0.915689 1.45274 0.884986 1.40981 0.864406 1.36427C0.84386 1.31881 0.833458 1.27094 0.833022 1.22322C0.832586 1.1755 0.84211 1.12753 0.861766 1.08187C0.881454 1.03614 0.911272 0.992846 0.950832 0.955247C0.990447 0.917596 1.03895 0.886531 1.09413 0.865074C1.14934 0.843603 1.20932 0.83252 1.27032 0.833024C1.33133 0.833528 1.39103 0.845599 1.44573 0.867932C1.50039 0.890251 1.54818 0.92203 1.58698 0.960204L1.58692 0.960258M0.956065 1.4898L1.58692 0.960258M1.58692 0.960258L1.59322 0.966242M1.58692 0.960258L1.59322 0.966242M1.59322 0.966242L4.66669 3.88737L5.01114 4.21475M1.59322 0.966242L5.01114 4.21475M5.01114 4.21475L5.3556 3.88737M5.01114 4.21475L5.3556 3.88737M5.3556 3.88737L8.42531 0.969817C8.50539 0.897536 8.61681 0.853833 8.73699 0.854826C8.85845 0.855829 8.96989 0.90232 9.04852 0.977047C9.12632 1.05099 9.16547 1.14555 9.16633 1.23875C9.16717 1.33089 9.1306 1.42475 9.05612 1.4993L5.32655 5.04401L5.3265 5.04406M5.3556 3.88737L5.3265 5.04406M5.3265 5.04406C5.24702 5.11962 5.13405 5.16626 5.01125 5.16634L5.3265 5.04406Z" stroke="white" stroke-opacity="0.54"/>
</svg>
