<svg viewBox="0 0 76 24" fill="none" xmlns="http://www.w3.org/2000/svg">
<path d="M13.7197 2.72064V16.7323C13.7197 17.7203 13.2332 18.2143 12.2602 18.2143H10.374C9.92491 18.2143 9.58809 18.1095 9.36355 17.8999C9.15397 17.6903 8.93691 17.3835 8.71236 16.9793L4.91755 10.3776C4.73791 10.0034 4.55827 9.59922 4.37864 9.16509C4.199 8.73097 4.0493 8.29685 3.92955 7.86273H3.72745C3.78733 8.29685 3.83224 8.74594 3.86218 9.21C3.90709 9.65909 3.92955 10.0932 3.92955 10.5124V18.2143H0V4.20264C0 3.21464 0.494 2.72064 1.482 2.72064H3.34573C3.79482 2.72064 4.12415 2.82543 4.33373 3.035C4.5433 3.24458 4.76785 3.55146 5.00736 3.95564L8.645 10.3103C8.85458 10.6695 9.05667 11.0662 9.25127 11.5004C9.44588 11.9345 9.633 12.3911 9.81264 12.8701H10.0147C9.96982 12.406 9.93239 11.9495 9.90246 11.5004C9.87252 11.0513 9.85754 10.6022 9.85754 10.1531L9.83509 2.72064H13.7197Z" fill="white"/>
<path d="M20.3763 7.05437V18.2143H16.312V7.05437H20.3763Z" fill="white"/>
<path d="M43.5248 6.74C45.0517 6.74 46.1295 7.18909 46.7583 8.08728C47.387 8.98546 47.7013 10.46 47.7013 12.5108C47.7013 13.3192 47.619 14.0826 47.4543 14.8012C47.3046 15.5048 47.0277 16.141 46.6235 16.7098C46.2193 17.2637 45.6355 17.6978 44.8721 18.0122C44.1236 18.3265 43.1431 18.4837 41.9305 18.4837C41.5263 18.4837 41.0473 18.4613 40.4934 18.4164C39.9545 18.3864 39.3932 18.334 38.8093 18.2592C38.2405 18.1843 37.7016 18.0945 37.1926 17.9897C36.6836 17.87 36.2645 17.7352 35.9352 17.5855L39.1911 15.3176C39.4006 15.3925 39.6626 15.4599 39.977 15.5197C40.3063 15.5796 40.6356 15.6245 40.965 15.6545C41.3093 15.6694 41.6012 15.6769 41.8407 15.6769C42.2599 15.647 42.5892 15.5497 42.8287 15.385C43.0682 15.2054 43.2404 14.891 43.3452 14.4419C43.45 13.9928 43.5023 13.3566 43.5023 12.5333C43.5023 11.8147 43.4574 11.2683 43.3676 10.8941C43.2778 10.5049 43.1057 10.2354 42.8512 10.0857C42.6116 9.93603 42.2748 9.86119 41.8407 9.86119C41.4066 9.86119 41.0249 9.93603 40.6955 10.0857C40.3662 10.2205 40.0069 10.4001 39.6177 10.6246L39.3258 8.91809C39.6701 8.52888 40.0593 8.16961 40.4934 7.84028C40.9276 7.51094 41.3991 7.24897 41.9081 7.05437C42.432 6.84479 42.9709 6.74 43.5248 6.74ZM39.9994 2.49609L40.0443 5.84182C40.0593 6.36576 40.0294 6.8897 39.9545 7.41364C39.8946 7.92261 39.7749 8.40912 39.5953 8.87319L39.9994 9.16509V17.7652L35.9352 17.5855V2.49609H39.9994Z" fill="white"/>
<path d="M53.6164 7.05437V14.1275C53.6014 14.4719 53.6762 14.7189 53.8409 14.8685C54.0056 15.0182 54.275 15.0931 54.6493 15.0931C55.0085 15.0931 55.3753 15.0407 55.7495 14.9359C56.1388 14.8311 56.6253 14.6365 57.2091 14.3521L57.4785 16.4404C56.7001 17.1439 55.9292 17.6679 55.1657 18.0122C54.4023 18.3565 53.6089 18.5286 52.7855 18.5286C50.6149 18.5286 49.5296 17.4882 49.5296 15.4075V7.05437H53.6164ZM60.8916 7.05437V18.2143H57.6806L57.1866 15.9688L56.7825 15.6994V7.05437H60.8916Z" fill="white"/>
<path d="M75.1383 7.05437L71.3884 18.102C71.1938 18.6858 70.9244 19.2846 70.5801 19.8984C70.2358 20.5121 69.7867 21.0585 69.2328 21.5375C68.6939 22.0315 68.0352 22.3908 67.2568 22.6154C66.4784 22.8399 65.5652 22.8624 64.5173 22.6827L64.2254 20.4373C65.1386 20.2277 65.8571 19.9433 66.3811 19.584C66.92 19.2247 67.3316 18.7232 67.6161 18.0795L68.3795 16.3955C68.5442 16.0362 68.6864 15.5946 68.8062 15.0706C68.9409 14.5317 69.0457 14.0752 69.1205 13.7009L70.7822 7.05437H75.1383ZM66.426 7.05437L68.1101 13.7009C68.17 14.0153 68.2223 14.3371 68.2673 14.6665C68.3271 14.9958 68.3795 15.3176 68.4244 15.632H69.0532L67.7957 18.2143H66.8526C66.5383 18.2143 66.2613 18.1245 66.0218 17.9448C65.7972 17.7652 65.6401 17.5332 65.5503 17.2487L62.0923 7.05437H66.426Z" fill="white"/>
<path d="M20.3992 3.23794C20.3992 2.42957 20.0025 2.02539 19.2091 2.02539H17.4577C16.6643 2.02539 16.2676 2.42957 16.2676 3.23794V4.40557C16.2676 5.21394 16.6643 5.61812 17.4577 5.61812H19.2091C20.0025 5.61812 20.3992 5.21394 20.3992 4.40557V3.23794Z" fill="#FF6816"/>
<path d="M34.5003 7.05469L31.4015 12.5111L34.7473 18.2146H30.683L27.5618 12.5111L30.436 7.05469H34.5003ZM25.99 7.05469L28.8866 12.5111L25.7654 18.2146H21.6787L25.0244 12.5111L21.9257 7.05469H25.99ZM30.3013 11.2761V13.6563H26.1696V11.2761H30.3013Z" fill="#555CF0"/>
</svg>
