<svg viewBox="0 0 150 198" fill="none" xmlns="http://www.w3.org/2000/svg">
<path d="M0.469549 52.7895C42.7504 65.2238 79.2633 75.9609 81.8643 70.7087C84.215 65.9482 57.9466 46.7307 49.3147 40.4156L49.8552 39.657L51.4241 40.7434C84.2793 63.5182 100.768 74.9509 105.645 71.4694C109.875 68.4495 105.858 53.3662 98.3927 26.9705L99.2896 26.716C106.79 53.2386 111.291 68.2632 116.558 68.6522C122.624 69.1088 130.839 50.8354 147.223 14.445L147.669 13.4543L148.523 13.8264C141.277 31.0231 132.105 54.1828 136.097 56.7768C141.014 59.963 166.96 32.2391 197.001 0.131525L197.686 0.76642C166.075 34.5481 141.118 61.2272 144.315 65.3812C147.173 69.0935 174.838 54.1915 183.929 49.2953L184.379 50.1114L182.761 51.0251C148.955 70.1203 131.984 79.6979 132.881 85.5133C133.627 90.364 147.173 93.4554 171.049 98.5014L170.856 99.4139C145.905 94.1413 132.749 91.5863 129.861 95.8704C126.467 100.898 136.857 116.334 157.555 147.076L158.143 147.948L157.374 148.474C146.319 132.668 133.113 114.738 129.379 116.482C124.672 118.644 133.198 151.64 145 197.306L145.009 197.34L144.107 197.573C132.333 152.013 123.825 119.096 118.411 119.484C114.097 119.788 111.106 142.075 108.967 161.452L108.042 161.359L108.093 160.809C111.5 123.432 113.213 104.669 107.754 101.884C103.068 99.4942 92.5308 108.408 72.7541 125.698L72.1402 124.996C90.9803 108.524 101.553 98.9815 99.7894 94.384C97.6879 88.8991 77.885 89.1867 38.4254 89.7305L36.3998 89.7585L36.3762 88.8255C46.7493 88.4511 78.3185 87.3128 78.9255 82.4803C79.6099 77.0339 42.8135 66.2132 0.206018 53.6836L0.469549 52.7895ZM104.92 72.8179C99.6628 74.2266 88.0631 67.0789 66.3372 52.1789C79.1008 62.4119 84.1015 68.291 82.7031 71.1209C81.0036 74.5655 70.2888 73.0833 50.5024 67.967C70.3018 74.4477 80.3109 78.968 79.8546 82.5955C79.5865 84.7263 76.329 87.0004 57.8419 88.5581C85.5746 88.3256 98.7355 89.0199 100.664 94.0494C101.813 97.0484 98.8934 101.399 92.4164 107.866C100.2 101.857 105.064 99.4652 108.181 101.053C112.919 103.47 112.924 114.995 110.979 138.779C113.243 124.716 115.516 118.764 118.347 118.554C121.859 118.303 125.714 127.219 131.15 145.659C126.816 126.46 125.873 117.07 128.992 115.633C131.461 114.498 136.118 118.475 144.512 129.254C131.588 109.662 126.143 99.7081 129.091 95.3434C130.991 92.518 136.166 92.2072 145.414 93.5432C136.82 91.1184 132.45 88.8239 131.96 85.6443C131.154 80.4156 141.563 73.4599 164.305 60.4136C151.539 66.4941 145.241 68.0955 143.578 65.9403C141.429 63.1498 147.429 54.614 161.191 39.0247C147.085 53.099 138.785 59.6169 135.595 57.5519C132.928 55.8218 134.108 48.4628 139.766 33.1922C128.241 58.376 122 69.9759 116.492 69.5756C112.986 69.3171 110.024 64.1027 106.556 54.1019C108.803 64.3089 109.001 70.2151 106.19 72.2152C105.804 72.4933 105.371 72.6983 104.912 72.8201L104.92 72.8179Z" fill="black"/>
</svg>
