<svg width="70" height="112" viewBox="0 0 70 112" fill="none" xmlns="http://www.w3.org/2000/svg">
<path d="M14.0034 112C13.9661 112 13.9291 111.993 13.8945 111.979C13.86 111.964 13.8286 111.943 13.8022 111.917C13.7758 111.891 13.7549 111.859 13.7407 111.825C13.7264 111.79 13.7191 111.753 13.7192 111.716C13.7192 83.8922 12.8508 69.4048 8.106 67.4398C5.52408 66.369 1.58414 68.8205 -5.49472 75.8994C-5.548 75.9526 -5.62024 75.9825 -5.69555 75.9825C-5.77085 75.9825 -5.84308 75.9526 -5.89637 75.8994C-5.92281 75.8731 -5.94379 75.8418 -5.95811 75.8073C-5.97242 75.7728 -5.97979 75.7359 -5.97979 75.6986C-5.97979 75.6613 -5.97242 75.6243 -5.95811 75.5898C-5.94379 75.5554 -5.92281 75.5241 -5.89637 75.4977C1.18174 68.4189 3.63255 64.479 2.56326 61.897C0.595181 57.1523 -13.8922 56.2846 -41.7158 56.2846C-41.7912 56.2846 -41.8635 56.2546 -41.9168 56.2013C-41.9701 56.148 -42 56.0758 -42 56.0004C-42 55.925 -41.9701 55.8527 -41.9168 55.7994C-41.8635 55.7461 -41.7912 55.7162 -41.7158 55.7162C-13.8922 55.7162 0.595177 54.8477 2.56022 50.103C3.62952 47.5211 1.17871 43.5804 -5.8994 36.5023C-5.9496 36.4484 -5.97692 36.3771 -5.97563 36.3035C-5.97433 36.2299 -5.9445 36.1596 -5.89243 36.1076C-5.84037 36.0555 -5.77012 36.0257 -5.6965 36.0244C-5.62288 36.0231 -5.55162 36.0504 -5.49775 36.1006C1.58035 43.1787 5.52105 45.6303 8.10297 44.5602C12.8477 42.5952 13.7162 28.1078 13.7162 0.284185C13.7162 0.208815 13.7461 0.136531 13.7994 0.0832359C13.8527 0.0299408 13.925 0 14.0004 0C14.0758 0 14.148 0.0299408 14.2013 0.0832359C14.2546 0.136531 14.2846 0.208815 14.2846 0.284185C14.2846 28.1078 15.1523 42.5952 19.897 44.5602C22.4797 45.6303 26.4189 43.1795 33.4977 36.1006C33.5238 36.0727 33.5551 36.0503 33.59 36.0348C33.6249 36.0192 33.6625 36.0109 33.7006 36.0102C33.7388 36.0095 33.7767 36.0165 33.8121 36.0308C33.8475 36.0451 33.8796 36.0664 33.9066 36.0934C33.9336 36.1204 33.9549 36.1525 33.9692 36.1879C33.9835 36.2233 33.9905 36.2612 33.9898 36.2994C33.9891 36.3375 33.9808 36.3751 33.9652 36.41C33.9497 36.4449 33.9273 36.4762 33.8994 36.5023C26.8213 43.5804 24.3705 47.5211 25.4398 50.103C27.4048 54.8477 41.8922 55.7162 69.7158 55.7162C69.7912 55.7162 69.8635 55.7461 69.9168 55.7994C69.9701 55.8527 70 55.925 70 56.0004C70 56.0758 69.9701 56.148 69.9168 56.2013C69.8635 56.2546 69.7912 56.2846 69.7158 56.2846C41.8922 56.2846 27.4048 57.1523 25.4398 61.897C24.3705 64.479 26.8213 68.4189 33.8994 75.4977C33.9258 75.5241 33.9468 75.5554 33.9611 75.5898C33.9754 75.6243 33.9828 75.6613 33.9828 75.6986C33.9828 75.7359 33.9754 75.7728 33.9611 75.8073C33.9468 75.8418 33.9258 75.8731 33.8994 75.8994C33.8461 75.9526 33.7739 75.9825 33.6986 75.9825C33.6233 75.9825 33.551 75.9526 33.4977 75.8994C26.4196 68.8205 22.4797 66.369 19.897 67.4398C15.1523 69.4048 14.2846 83.8922 14.2846 111.716C14.2846 111.791 14.255 111.862 14.2024 111.916C14.1498 111.969 14.0783 111.999 14.0034 112ZM6.87984 66.6357C7.37362 66.633 7.86303 66.7283 8.31971 66.9161C11.9664 68.4265 13.4525 76.0995 14.0034 90.9551C14.5498 76.1017 16.0359 68.4265 19.6826 66.9161C21.9106 65.9916 24.8032 67.4216 28.3324 70.3309C25.4201 66.8002 23.9916 63.9083 24.9161 61.6795C26.4265 58.0329 34.0995 56.5468 48.9551 56.0004C34.1017 55.4532 26.4265 53.9671 24.9161 50.3167C23.9931 48.0879 25.4216 45.1953 28.3309 41.6668C24.8017 44.5761 21.9068 46.0039 19.681 45.0816C16.0329 43.575 14.5468 35.9021 14.0034 21.0464C13.4563 35.8998 11.9702 43.575 8.31971 45.0854C6.09018 46.0077 3.19907 44.5807 -0.330128 41.6706C2.57917 45.1998 4.00767 48.0917 3.08464 50.3205C1.57429 53.9671 -6.09871 55.4532 -20.9544 56.0042C-6.10098 56.5506 1.57429 58.0367 3.08464 61.6833C4.00767 63.9121 2.57917 66.804 -0.330128 70.3332C2.47914 68.0135 4.88523 66.6357 6.87377 66.6357H6.87984Z" fill="black"/>
</svg>
