<svg width="134" height="89" viewBox="0 0 134 89" fill="none" xmlns="http://www.w3.org/2000/svg">
<path d="M25.9822 66.4827L25.9335 66.4634C23.7924 65.5966 23.3155 64.3018 23.2931 63.3674C23.2262 60.6712 26.7495 57.2156 33.5935 53.2031C18.1816 58.435 7.36006 57.5507 2.9414 53.738C1.9854 52.9742 1.28484 51.9372 0.933024 50.7651C0.581205 49.5931 0.594847 48.3417 0.972126 47.1777C2.37857 42.4257 9.50816 36.2732 24.7942 32.3222C17.0379 32.8531 12.6119 32.346 11.5814 30.8056C11.4081 30.5421 11.3188 30.2321 11.3253 29.9168C11.3318 29.6014 11.4339 29.2954 11.6179 29.0393C14.238 24.5908 35.1549 18.143 54.0052 17.6259C35.9918 13.662 19.2707 2.40333 17.2413 -3.16084C17.0206 -3.59907 16.9407 -4.0948 17.0125 -4.5802C17.0843 -5.0656 17.3043 -5.51694 17.6425 -5.87248C19.3221 -7.53377 24.0998 -6.99075 29.7294 -5.52551C19.1192 -10.4365 12.7464 -14.9762 12.4148 -18.0733C12.3661 -18.4798 12.4383 -18.8916 12.6222 -19.2573C12.8062 -19.6229 13.0939 -19.9263 13.4492 -20.1295C16.9643 -22.3931 29.0614 -19.8984 44.2874 -12.4199C28.1077 -24.5812 19.1603 -38.9297 19.7514 -45.3913C19.7466 -46.0816 19.9528 -46.757 20.3426 -47.3268C20.7323 -47.8966 21.2869 -48.3337 21.932 -48.5796C25.0907 -49.7268 31.0487 -46.8459 38.9297 -40.5059C32.8689 -47.1295 27.6909 -53.5992 28.3558 -55.7731C28.4183 -55.9837 28.5392 -56.1723 28.7046 -56.3169C28.8699 -56.4615 29.0729 -56.5562 29.29 -56.5899C32.6245 -57.2161 46.9914 -46.2183 61.6335 -29.5507C55.7552 -40.1895 56.0285 -48.5657 58.7876 -53.3569C59.8213 -55.2384 61.4148 -56.7518 63.3472 -57.6871C65.2795 -58.6224 67.455 -58.9333 69.572 -58.5767C75.2793 -57.7409 82.3513 -52.4356 87.0961 -40.3472C86.3631 -46.5844 87.055 -50.5543 89.1639 -51.9796C90.2314 -52.7023 92.1597 -53.1046 95.2807 -50.9003C102.132 -46.0653 112.07 -29.8249 111.251 -14.9478C116.623 -26.6357 128.61 -34.6882 136.212 -35.6186C139.047 -35.9658 141.102 -35.243 141.993 -33.5856C143.342 -31.0969 142.033 -26.9072 138.198 -21.3049C145.638 -27.1591 154.308 -28.7359 162.248 -25.3777C170.442 -21.9626 175.896 -14.0218 175.216 -6.49604C174.867 -2.62803 172.669 3.71085 162.886 7.98531C185.021 4.49422 204.292 6.31037 207.122 9.76843C207.326 9.9923 207.461 10.2704 207.511 10.5693C207.56 10.8682 207.523 11.1751 207.402 11.4529C206.281 14.01 197.897 15.6424 188.95 16.6673C205.354 17.4017 213.576 21.4041 215.796 25.5284C216.304 26.4305 216.524 27.4662 216.428 28.497C216.332 29.5278 215.923 30.5047 215.257 31.2973C211.677 36.0903 200.317 39.6028 182.608 38.0679C192.041 40.3647 201.586 43.1435 202.169 45.0874C202.217 45.2424 202.221 45.4075 202.18 45.5646C202.14 45.7216 202.057 45.8642 201.94 45.9766C200.218 47.7065 185.682 45.8843 166.867 41.0682C182.013 48.1598 190.91 58.7803 191.883 66.6741C192.277 69.9071 191.232 72.4381 188.93 73.7928C184.625 76.3234 176.943 74.586 167.15 69.033C176.203 76.6691 180.892 82.6949 180.277 86.096C180.177 86.6446 179.914 87.1504 179.523 87.5471C179.131 87.9439 178.628 88.213 178.081 88.3193C173.31 89.6496 160.682 84.5259 147.08 72.3683C152.386 79.0369 152.051 79.9314 151.917 80.2928C151.868 80.4248 151.784 80.5406 151.673 80.6271C151.562 80.7135 151.429 80.7671 151.29 80.7817C149.121 81.0672 136.465 69.2056 126.052 56.0242C127.736 60.4761 128.338 65.2642 127.81 69.9944C127.281 74.7245 125.637 79.2616 123.012 83.232C119.939 87.6183 116.133 89.6886 112.831 88.7677C109.305 87.7825 106.748 83.5778 105.419 76.7137C104.539 82.8166 101.686 86.8387 97.09 88.2766C88.6928 90.9055 75.9588 84.2472 69.8333 74.0272C65.7081 67.1369 65.4985 60.0845 69.089 54.0134C54.0437 65.7258 33.0249 69.2774 25.9822 66.4827ZM44.2894 48.8858C26.1813 57.2949 24.3169 61.7949 24.3556 63.341C24.3779 64.2372 25.0426 64.9555 26.3322 65.4782L26.3757 65.4955C33.7116 68.4081 58.2334 63.6599 72.7069 49.4441L73.4535 50.198C64.328 59.1578 67.8404 68.6285 70.7445 73.4757C76.6419 83.314 88.8038 89.7543 96.7735 87.2575C102.519 85.46 105.207 79.4149 104.56 69.7782L105.621 69.7055C106.565 83.839 110.717 87.0684 113.115 87.737C115.964 88.5328 119.338 86.6172 122.142 82.6153C125.319 77.834 126.988 72.209 126.933 66.4685C126.877 60.728 125.1 55.1364 121.831 50.4175L122.695 49.7987C133.193 64.4867 147.874 78.433 150.832 79.638C150.458 78.66 148.414 75.06 137.46 62.6635L138.256 61.9597C155.423 81.3858 172.857 88.6708 177.797 87.2904C178.15 87.2332 178.477 87.0694 178.733 86.8211C178.99 86.5727 179.164 86.2517 179.233 85.9013C179.793 82.8058 174.129 74.9295 156.553 62.1071L157.18 61.2493C171.428 71.6327 183.097 75.9821 188.397 72.8674C189.369 72.2207 190.123 71.294 190.558 70.2099C190.993 69.1258 191.089 67.9353 190.833 66.7955C189.692 57.5098 177.006 44.2597 155.743 37.995L156.044 36.9756C182.689 44.8267 199.32 46.327 201.1 45.2881C200.279 44.1921 192.521 40.9671 167.947 35.8603L168.164 34.8182C192.681 39.9223 209.991 36.5875 214.418 30.6544C214.961 30.0236 215.296 29.2404 215.377 28.4119C215.458 27.5833 215.282 26.7499 214.871 26.0257C212.34 21.3296 200.19 16.376 174.265 17.8837L174.203 16.8224C196.693 15.5137 205.625 12.8789 206.439 11.0204C206.494 10.8808 206.532 10.7051 206.311 10.436C203.606 7.13128 180.359 4.99269 154.366 10.6598L154.139 9.62151C170.617 6.02936 173.761 -2.08209 174.17 -6.59757C174.793 -13.6682 169.617 -21.1544 161.84 -24.3962C152.264 -28.3917 141.758 -25.013 133.664 -15.395L132.85 -16.0795C142.419 -27.4474 141.783 -31.7555 141.067 -33.0799C140.199 -34.6776 138.019 -34.7701 136.342 -34.5624C127.957 -33.5355 114.041 -23.4988 110.42 -9.48257L109.391 -9.74913C113.379 -25.1899 101.96 -44.8865 94.6682 -50.0336C93.2222 -51.0651 91.1922 -52.0693 89.7563 -51.1025C88.5674 -50.2969 86.1894 -46.7921 89.7797 -31.6462L88.7462 -31.401C84.5278 -49.2006 75.9933 -56.567 69.4184 -57.5217C67.5125 -57.843 65.5539 -57.5633 63.8141 -56.7215C62.0743 -55.8796 60.6395 -54.5173 59.7087 -52.8235C56.4143 -47.1028 56.9384 -35.8928 68.2898 -21.5854L67.4568 -20.9236C50.8047 -41.9217 32.6302 -56.1283 29.5003 -55.5413C29.3969 -55.5229 29.3901 -55.4982 29.3781 -55.4602C28.9888 -54.1878 33.0618 -47.3426 50.7995 -29.7662L50.0515 -29.0112C30.4139 -48.461 23.8467 -48.1411 22.3003 -47.5795C21.8499 -47.3941 21.4663 -47.0764 21.2001 -46.6685C20.9338 -46.2606 20.7976 -45.7815 20.8092 -45.2945C20.1528 -38.1118 32.8961 -19.6185 54.3617 -6.98838L53.8228 -6.07259C33.2803 -18.1593 17.5116 -21.4866 14.0281 -19.241C13.8387 -19.1429 13.684 -18.9891 13.5848 -18.8003C13.4856 -18.6115 13.4466 -18.3968 13.4732 -18.1852C13.7156 -15.9041 20.1816 -9.76003 42.8393 -1.23062L42.4655 -0.235519C22.9691 -7.57993 19.1112 -5.82756 18.392 -5.11445C18.2595 -4.98411 17.8555 -4.58495 18.2424 -3.52417C20.4962 2.66124 41.8364 16.1563 62.292 17.821L62.2068 18.8804C40.4932 17.1202 14.8509 25.6392 12.5258 29.5751C12.2942 29.9665 12.4102 30.1391 12.4577 30.2113C12.7739 30.686 15.4597 32.8958 37.4244 29.8799L37.5703 30.9334C13.9559 34.1756 3.64787 41.8746 1.98361 47.4756C1.66183 48.4437 1.64722 49.4876 1.94178 50.4643C2.23634 51.441 2.82567 52.3028 3.62903 52.9316C8.76448 57.3581 23.1813 57.5279 43.8409 47.9225L44.2894 48.8858Z" fill="black"/>
</svg>
