<svg viewBox="0 0 186 64" fill="none" xmlns="http://www.w3.org/2000/svg">
<path d="M3.59075 151.999H3.53244C0.963486 151.982 -0.0609398 150.84 -0.46756 149.883C-1.64329 147.123 0.580505 142.105 6.0084 135.148C-7.77568 146.882 -19.3249 150.409 -25.4573 148.282C-26.759 147.884 -27.9088 147.1 -28.7535 146.033C-29.5982 144.966 -30.0977 143.667 -30.1854 142.308C-30.6819 136.819 -25.8371 127.533 -11.6575 117.175C-19.4573 120.907 -24.2406 122.2 -25.938 121.03C-26.2254 120.829 -26.4449 120.545 -26.5676 120.217C-26.6902 119.888 -26.7103 119.53 -26.6252 119.189C-25.7426 113.516 -6.76701 98.2658 12.5064 89.9948C-7.741 93.2903 -29.6464 88.5148 -34.0278 83.596C-34.4359 83.2336 -34.7219 82.754 -34.8469 82.2227C-34.9719 81.6915 -34.9297 81.1346 -34.726 80.6283C-33.6717 78.2217 -28.5101 76.8222 -22.0893 76.0263C-35.0728 75.3044 -43.5235 73.2272 -45.1374 70.1618C-45.3545 69.7616 -45.449 69.3064 -45.4089 68.8528C-45.3688 68.3993 -45.196 67.9677 -44.912 67.6118C-42.2075 63.8293 -28.6788 61.4431 -9.87024 62.9246C-31.5866 56.994 -46.7245 45.834 -48.7654 38.912C-49.0537 38.2004 -49.1176 37.4176 -48.9486 36.6686C-48.7796 35.9196 -48.3858 35.2402 -47.8198 34.7213C-45.0255 32.239 -37.6843 32.7717 -26.9356 36.0909C-35.9191 31.7316 -43.927 27.1689 -44.1319 24.6488C-44.1537 24.4055 -44.1061 24.1609 -43.9945 23.9436C-43.8829 23.7263 -43.7119 23.5451 -43.5014 23.4211C-40.3115 21.4053 -20.9467 26.8773 1.02968 38.0972C-9.41319 29.5125 -12.5684 20.7418 -11.6827 14.6567C-11.3864 12.2875 -10.3603 10.0691 -8.74665 8.30924C-7.13304 6.54934 -5.01185 5.33507 -2.67717 4.83478C3.56554 3.35645 13.0533 5.93801 22.9193 16.4865C19.6018 10.3399 18.6877 5.9522 20.2826 3.61335C21.0896 2.42816 22.9178 1.22091 27.0486 2.21855C36.1156 4.40452 53.0533 17.1137 58.3126 32.8285C59.0691 18.5416 68.155 5.29814 75.6317 1.21619C78.4198 -0.306273 80.8405 -0.402412 82.4418 0.945106C84.8579 2.96402 85.2235 7.83242 83.5592 15.1973C88.8469 6.09247 97.1621 0.904128 106.748 1.11689C116.62 1.28396 125.517 7.25401 127.903 15.3123C129.129 19.4542 129.458 26.9089 121.101 35.3423C142.549 22.6488 163.214 16.6173 167.559 19.0302C167.862 19.1778 168.116 19.4099 168.29 19.6985C168.464 19.9871 168.55 20.3199 168.54 20.6567C168.431 23.7599 160.434 28.8884 151.607 33.6197C168.864 27.6464 179.006 28.4093 182.993 31.7615C183.889 32.4856 184.542 33.4656 184.865 34.5707C185.189 35.6758 185.168 36.8532 184.804 37.9459C183.071 44.3699 172.77 52.663 153.833 58.3446C164.527 56.8474 175.534 55.8025 176.935 57.5724C177.048 57.7129 177.12 57.8821 177.142 58.061C177.165 58.2399 177.137 58.4216 177.063 58.5858C175.993 61.0806 160.22 65.1626 138.793 67.9065C157.361 69.0208 170.916 76.3478 175.162 84.1082C176.896 87.2887 176.855 90.3336 175.031 92.6787C171.619 97.0617 162.965 98.4187 150.563 96.6977C163.055 100.876 170.376 105.18 171.135 108.948C171.258 109.556 171.194 110.187 170.952 110.758C170.709 111.329 170.3 111.813 169.778 112.148C165.392 115.481 150.235 115.367 131.186 108.382C139.408 113.098 139.428 114.16 139.438 114.589C139.442 114.745 139.402 114.9 139.323 115.034C139.244 115.169 139.129 115.279 138.99 115.352C136.866 116.537 118.915 109.47 102.741 100.118C106.309 104.029 108.896 108.731 110.291 113.837C111.686 118.944 111.849 124.309 110.765 129.49C109.389 135.286 106.305 138.988 102.513 139.391C98.4639 139.82 94.0951 136.523 89.9044 129.973C91.4993 136.643 90.2007 141.971 86.0399 145.344C78.4387 151.508 62.5427 149.851 52.0163 141.801C44.9241 136.371 41.813 129.167 43.0328 121.418C32.2874 139.7 12.0179 151.998 3.59075 151.999ZM15.2929 126.296C0.0257339 142.42 -0.0546379 147.837 0.619907 149.419C1.01077 150.337 1.99265 150.806 3.54032 150.817H3.59232C12.3709 150.817 35.7704 135.845 44.8973 115.21L45.9785 115.683C40.2227 128.69 47.7405 137.038 52.7318 140.857C62.8658 148.606 78.0809 150.272 85.2944 144.42C90.4954 140.204 90.7933 132.852 86.1692 123.156L87.2361 122.646C94.0131 136.868 99.6302 138.502 102.383 138.209C105.655 137.862 108.357 134.498 109.613 129.21C110.935 122.963 110.351 116.464 107.938 110.553C105.525 104.641 101.392 99.5909 96.0762 96.0546L96.716 95.0602C113.595 105.935 134.495 114.326 138.048 114.357C137.26 113.5 133.67 110.617 117.258 102.299L117.792 101.245C143.51 114.28 164.522 114.655 169.063 111.2C169.404 110.997 169.674 110.693 169.838 110.331C170.001 109.969 170.05 109.566 169.977 109.175C169.285 105.746 160.198 99.9286 136.766 93.8876L137.063 92.7434C156.053 97.6291 169.9 97.336 174.1 91.9412C174.84 90.8734 175.239 89.6062 175.243 88.307C175.248 87.0078 174.859 85.7378 174.127 84.6646C169.135 75.5345 150.584 67.0444 126.034 69.295L125.926 68.1177C156.691 65.2981 174.499 60.0231 175.912 58.2185C174.614 57.4226 165.271 57.2729 137.772 62.0799L137.569 60.9136C165.008 56.1271 181.532 45.5755 183.673 37.626C183.975 36.7509 184 35.8037 183.744 34.914C183.488 34.0242 182.963 33.2353 182.242 32.6551C177.698 28.8395 163.105 28.7055 136.926 40.9041L136.426 39.8324C159.137 29.2493 167.288 22.86 167.367 20.6047C167.367 20.4376 167.334 20.2406 166.995 20.0531C162.842 17.7473 137.934 25.0775 113.391 41.6039L112.73 40.6236C128.289 30.1476 128.21 20.4723 126.779 15.637C124.522 8.07198 116.098 2.45811 106.729 2.29893C95.1904 2.09877 85.7168 9.90334 81.2976 23.1673L80.1755 22.7938C85.4016 7.11532 82.9761 2.92304 81.6916 1.84818C80.1392 0.552671 77.8476 1.35172 76.1991 2.2548C67.9532 6.75756 57.6869 22.8442 59.6964 38.819L58.5238 38.9656C56.3094 21.3675 36.4213 5.69373 26.7712 3.36591C24.8532 2.8931 22.3425 2.68821 21.2551 4.27686C20.3567 5.59759 19.337 10.1965 29.2645 24.3793L28.2968 25.057C16.6309 8.38876 4.78539 4.27686 -2.40294 5.98845C-4.50492 6.43855 -6.41477 7.5315 -7.86771 9.11576C-9.32065 10.7 -10.2447 12.6971 -10.5117 14.8301C-11.5692 22.0956 -6.42659 33.4684 11.1794 43.5992L10.59 44.6252C-15.2414 29.7536 -39.8592 22.5275 -42.8537 24.4187C-42.953 24.4802 -42.9498 24.5085 -42.9467 24.5527C-42.8269 26.0278 -35.8072 31.4321 -10.2579 42.321L-10.7213 43.4085C-39.0034 31.3628 -45.6606 34.3888 -47.0286 35.6039C-47.4181 35.9805 -47.6843 36.4663 -47.7921 36.9972C-47.8998 37.5281 -47.8441 38.0793 -47.6323 38.5779C-45.3628 46.2721 -24.6 60.1587 2.77278 64.4045L2.59154 65.5724C-23.6039 61.5093 -41.2698 64.5416 -43.949 68.2926C-44.1045 68.4718 -44.2013 68.6943 -44.2264 68.9302C-44.2514 69.166 -44.2036 69.4039 -44.0893 69.6118C-42.9025 71.8702 -33.6969 75.5676 -6.77489 75.0854L-6.75283 76.2674C-29.9207 76.6772 -33.1894 80.072 -33.6401 81.1043C-33.7237 81.2934 -33.9774 81.8718 -33.1421 82.8096C-28.2737 88.2784 -0.675602 93.4699 21.1526 86.7954L21.4993 87.9254C-1.66851 95.0176 -24.6788 114.348 -25.4668 119.371C-25.5456 119.87 -25.3549 120.001 -25.2761 120.056C-24.7544 120.417 -21.0712 121.599 0.396111 109.467L0.979248 110.496C-22.1003 123.539 -29.596 135.728 -29.0176 142.201C-28.9529 143.334 -28.5396 144.419 -27.8342 145.308C-27.1289 146.197 -26.166 146.846 -25.0775 147.166C-17.9522 149.634 -2.97978 143.892 14.4339 125.484L15.2929 126.296Z" fill="black"/>
</svg>
