<svg viewBox="0 0 83 69" fill="none" xmlns="http://www.w3.org/2000/svg">
<path fill-rule="evenodd" clip-rule="evenodd" d="M5.6829 29.674C27.9585 19.9949 42.7876 13.5634 50.234 10.4432C71.4276 1.59195 75.8827 0.0636781 78.7467 0C79.3832 0 80.7834 0.127357 81.738 0.891495C82.5018 1.52828 82.6927 2.35609 82.82 2.99288C82.9473 3.62966 83.0746 4.9669 82.9473 5.98575C81.8017 18.0846 76.8374 47.4402 74.2916 60.94C73.2097 66.671 71.1094 68.5813 69.0728 68.7724C64.6177 69.1544 61.2445 65.8432 56.9803 63.0414C50.234 58.6476 46.479 55.9094 39.9236 51.5793C32.3499 46.6124 37.2506 43.8742 41.5784 39.4168C42.724 38.2706 62.2628 20.4407 62.6447 18.8487C62.7083 18.6577 62.7083 17.8936 62.2628 17.5115C61.8173 17.1294 61.1809 17.2568 60.6717 17.3841C59.9716 17.5115 49.2794 24.6434 28.4676 38.7163C25.4127 40.8177 22.676 41.8365 20.1938 41.7729C17.4571 41.7092 12.2383 40.2446 8.29233 38.971C3.51899 37.4427 -0.299678 36.6149 0.0185442 33.9404C0.209478 32.5395 2.11881 31.1386 5.6829 29.674Z" fill="#01072B"/>
</svg>
