<svg viewBox="0 0 46 48" fill="none" xmlns="http://www.w3.org/2000/svg">
<path d="M7.05175 42.7539C7.05175 44.2914 5.9157 45.3767 4.32742 45.3767C2.82976 45.3767 1.59302 44.4018 1.59302 42.4825V41.5378C1.59302 39.6886 2.48785 38.3446 4.14661 38.0333L6.59689 37.7295V38.7145L4.37776 38.9785C3.37261 39.1794 2.75928 39.8221 2.69886 41.1587C3.08061 40.3947 3.82484 40.192 4.50866 40.192C5.97612 40.1916 7.05175 41.2265 7.05175 42.7539ZM5.92577 42.7439C5.92577 41.8193 5.26209 41.156 4.33749 41.156C3.40238 41.156 2.73914 41.8193 2.73914 42.7439C2.73914 43.6886 3.40238 44.3418 4.33749 44.3418C5.26209 44.3418 5.92577 43.6886 5.92577 42.7439Z" fill="#D6DAEA"/>
<path d="M13.0331 43.0551C13.0371 42.8909 13.0331 42.7333 13.0222 42.5814C12.8943 40.8907 11.8227 39.96 10.3714 39.96C8.8212 39.96 7.70923 41.1354 7.70923 42.6839C7.70923 44.3111 8.87023 45.3867 10.4524 45.3867C11.6217 45.3867 12.5516 44.7029 12.8738 43.8247H11.7635C11.5079 44.1714 11.0745 44.4324 10.462 44.4324C9.6009 44.4324 8.93108 43.8689 8.8606 43.0551H13.0331ZM8.86104 42.1808C8.92014 41.4379 9.55143 40.8951 10.3714 40.8951C11.2229 40.8951 11.8227 41.4476 11.8529 42.1808H8.86104Z" fill="#D6DAEA"/>
<path d="M13.4192 44.291C13.8216 44.2709 14.2436 44.0498 14.2436 43.2158V40.0703H18.3378V45.2856H17.2017V41.0952H15.3595V43.2355C15.3595 44.6824 14.505 45.3355 13.4092 45.3158L13.4192 44.291Z" fill="#D6DAEA"/>
<path d="M21.4423 42.5026L23.942 40.0703H22.6186L21.2365 41.4117L20.4586 42.1669V40.0703H20.441H19.3891H19.3225V45.2861H19.3891H20.441H20.4586V42.8397L21.2242 43.7017L22.6295 45.2861H23.9512L21.4423 42.5026Z" fill="#D6DAEA"/>
<path d="M28.4872 40.0655L28.3488 40.8404C27.901 40.2932 27.1314 39.9648 26.4388 39.9648C26.4305 39.9648 26.423 39.9657 26.4147 39.9657C26.4024 39.9657 26.3906 39.9648 26.3784 39.9648C25.6254 39.9648 25.012 40.2402 24.5734 40.6885C24.5519 40.71 24.53 40.7305 24.5095 40.7524C24.4972 40.766 24.4858 40.7804 24.474 40.7944C24.0515 41.2725 23.8147 41.9239 23.8147 42.6682C23.8147 42.6717 23.8151 42.6747 23.8151 42.6782C23.8151 42.6817 23.8147 42.6848 23.8147 42.6883C23.8147 43.4325 24.0515 44.084 24.474 44.562C24.4858 44.576 24.4972 44.5905 24.5095 44.604C24.53 44.6264 24.5519 44.6465 24.5734 44.668C25.012 45.1163 25.6254 45.3916 26.3784 45.3916C26.3906 45.3916 26.4024 45.3907 26.4147 45.3907C26.423 45.3907 26.4305 45.3916 26.4388 45.3916C27.1314 45.3916 27.901 45.0633 28.3488 44.5161V45.2909H29.505V45.2809V40.0756V40.0655H28.4872ZM26.6704 44.3462C25.6854 44.3462 24.9814 43.6527 24.9814 42.6782C24.9814 41.7033 25.6854 41.0103 26.6704 41.0103C27.6458 41.0103 28.3392 41.7339 28.3392 42.6782C28.3392 43.6225 27.6453 44.3462 26.6704 44.3462Z" fill="#D6DAEA"/>
<path d="M30.4875 40.0655V40.0756V47.6291V47.6392H31.6437V44.5161C32.0916 45.0633 32.8612 45.3916 33.5538 45.3916C33.5621 45.3916 33.5695 45.3907 33.5779 45.3907C33.5901 45.3907 33.6019 45.3916 33.6142 45.3916C34.3672 45.3916 34.9805 45.1163 35.4192 44.668C35.4406 44.6465 35.4625 44.6259 35.4831 44.604C35.4954 44.5905 35.5067 44.576 35.5186 44.562C35.941 44.084 36.1779 43.4325 36.1779 42.6883C36.1779 42.6848 36.1774 42.6817 36.1774 42.6782C36.1774 42.6747 36.1779 42.6717 36.1779 42.6682C36.1779 41.9239 35.941 41.2725 35.5186 40.7944C35.5067 40.7804 35.4954 40.766 35.4831 40.7524C35.4625 40.7301 35.4406 40.71 35.4192 40.6885C34.9805 40.2402 34.3672 39.9648 33.6142 39.9648C33.6019 39.9648 33.5901 39.9657 33.5779 39.9657C33.5695 39.9657 33.5621 39.9648 33.5538 39.9648C32.8612 39.9648 32.0916 40.2932 31.6437 40.8404L31.5054 40.0655H30.4875ZM31.6538 42.6782C31.6538 41.7335 32.3477 41.0103 33.3226 41.0103C34.3077 41.0103 35.0116 41.7037 35.0116 42.6782C35.0116 43.6532 34.3077 44.3462 33.3226 44.3462C32.3473 44.3462 31.6538 43.6225 31.6538 42.6782Z" fill="#D6DAEA"/>
<path d="M44.7862 42.0329V45.2931H43.6383V42.3249C43.6383 41.3788 43.155 40.9564 42.511 40.9564C41.8465 40.9564 41.3435 41.399 41.3435 42.3249V45.2931H40.196V42.3249C40.196 41.3788 39.7026 40.9564 39.0788 40.9564C38.4046 40.9564 37.9012 41.399 37.9012 42.3249V45.2931H36.7437V40.0707H37.7532L37.8841 40.8237C38.1862 40.2905 38.6865 39.96 39.4614 39.96C40.1658 39.96 40.7433 40.2502 41.055 40.8237C41.3973 40.2905 41.9677 39.96 42.8135 39.96C43.9907 39.96 44.7862 40.755 44.7862 42.0329Z" fill="#D6DAEA"/>
<path d="M21.4075 26.7396L15.9448 32.0963C15.5788 32.4553 15.5832 32.9159 15.7101 33.2276C15.8371 33.5388 16.1549 33.8724 16.6676 33.8742L26.2791 33.9048C27.0185 33.907 27.6314 33.3072 27.645 32.5678C27.6459 32.5284 27.6463 32.4886 27.6463 32.4492C27.6529 30.3434 26.8167 28.2832 25.3414 26.7786C24.2675 25.6828 22.5028 25.6657 21.4075 26.7396Z" fill="#606580"/>
<path d="M15.1359 22.6657L7.48564 22.5909C6.973 22.5856 6.65035 22.9148 6.51989 23.2248C6.38943 23.5347 6.37849 23.9953 6.73966 24.3591L13.5148 31.1771C14.0362 31.7016 14.8934 31.7108 15.4262 31.1973C15.4546 31.1701 15.4831 31.1421 15.5111 31.1145C17.0044 29.6305 17.8703 27.5821 17.8909 25.475C17.9058 23.9406 16.6699 22.6806 15.1359 22.6657Z" fill="#606580"/>
<path d="M7.75369 21.5881C7.7931 21.589 7.83293 21.5894 7.87233 21.5894C9.97808 21.596 12.0383 20.7598 13.543 19.2845C14.6383 18.2106 14.6554 16.4459 13.5815 15.3506L8.22475 9.88789C7.86577 9.52191 7.40522 9.52628 7.09352 9.65324C6.78225 9.77976 6.44866 10.098 6.44691 10.6107L6.41626 20.2222C6.41451 20.9621 7.01428 21.5746 7.75369 21.5881Z" fill="#606580"/>
<path d="M9.20638 9.45281C10.6905 10.9461 12.7389 11.812 14.8459 11.8326C16.3799 11.8475 17.6399 10.6121 17.6547 9.07806L17.7296 1.42778C17.7349 0.915137 17.4056 0.59249 17.0957 0.46203C16.7857 0.33157 16.3252 0.320626 15.9614 0.681798L9.14378 7.45695C8.61931 7.97835 8.61012 8.83553 9.12364 9.36832C9.15078 9.39633 9.1788 9.42479 9.20638 9.45281Z" fill="#606580"/>
<path d="M24.9701 7.52416L30.4327 2.16743C30.7987 1.80845 30.7943 1.3479 30.6674 1.0362C30.5409 0.724931 30.2226 0.391339 29.7099 0.389588L20.098 0.359381C19.3585 0.357192 18.7456 0.956957 18.7321 1.69637C18.7312 1.73578 18.7308 1.77561 18.7308 1.81501C18.7242 3.92076 19.5604 5.98097 21.0357 7.48564C22.11 8.58053 23.8747 8.59805 24.9701 7.52416Z" fill="#606580"/>
<path d="M31.2422 11.5973L38.8925 11.6722C39.4052 11.6774 39.7278 11.3482 39.8583 11.0383C39.9887 10.7283 39.9997 10.2678 39.6385 9.90397L32.8633 3.08592C32.3419 2.56145 31.4848 2.55226 30.952 3.06578C30.9235 3.09292 30.8951 3.12094 30.8675 3.14852C29.3742 4.63261 28.5083 6.681 28.4877 8.78806C28.4724 10.3221 29.7082 11.582 31.2422 11.5973Z" fill="#606580"/>
<path d="M38.6246 12.6752C38.5852 12.6743 38.5453 12.6739 38.5059 12.6739C36.4002 12.6673 34.34 13.5035 32.8353 14.9788C31.74 16.0527 31.7229 17.8174 32.7968 18.9127L38.1535 24.3754C38.5125 24.7414 38.973 24.737 39.2847 24.6101C39.596 24.4835 39.9296 24.1653 39.9313 23.6526L39.962 14.0411C39.9637 13.3012 39.364 12.6883 38.6246 12.6752Z" fill="#606580"/>
<path d="M37.172 24.8106C35.6879 23.3173 33.6395 22.4514 31.5324 22.4308C29.9984 22.4159 28.7385 23.6513 28.7236 25.1853L28.6487 32.8356C28.6435 33.3483 28.9727 33.6709 29.2827 33.8014C29.5926 33.9318 30.0532 33.9428 30.417 33.5816L37.235 26.8065C37.7595 26.2851 37.7687 25.4279 37.2551 24.8951C37.2276 24.8671 37.1995 24.8386 37.172 24.8106Z" fill="#606580"/>
</svg>
