<svg viewBox="0 0 41 40" fill="none" xmlns="http://www.w3.org/2000/svg">
<g clip-path="url(#clip0_160_5943)">
<path d="M39.8991 24.8381C37.2279 35.5525 26.376 42.0731 15.6603 39.4012C4.94917 36.7301 -1.57139 25.8775 1.10092 15.1639C3.77089 4.44838 14.6228 -2.07268 25.3352 0.598468C36.0501 3.26961 42.5702 14.1234 39.8988 24.8383L39.899 24.8381H39.8991Z" fill="#303655"/>
<path d="M29.319 17.1506C29.717 14.489 27.6907 13.0583 24.9199 12.1039L25.8187 8.49857L23.6241 7.95171L22.749 11.4621C22.1721 11.3182 21.5796 11.1826 20.9907 11.0482L21.872 7.51463L19.6787 6.96777L18.7794 10.5719C18.3019 10.4632 17.833 10.3558 17.378 10.2426L17.3805 10.2312L14.3541 9.47547L13.7702 11.8195C13.7702 11.8195 15.3985 12.1928 15.3642 12.2157C16.2529 12.4375 16.4136 13.0258 16.3869 13.4922L15.363 17.5995C15.4242 17.615 15.5036 17.6375 15.5912 17.6727C15.518 17.6545 15.44 17.6347 15.3592 17.6153L13.924 23.3691C13.8154 23.6391 13.5397 24.0443 12.9184 23.8904C12.9404 23.9223 11.3233 23.4923 11.3233 23.4923L10.2336 26.0045L13.0896 26.7165C13.621 26.8497 14.1416 26.9891 14.6544 27.1202L13.7462 30.7669L15.9383 31.3138L16.8377 27.7058C17.4366 27.8684 18.0177 28.0183 18.5867 28.1597L17.6903 31.7506L19.8851 32.2975L20.7932 28.6577C24.5356 29.3659 27.3495 29.0804 28.534 25.6954C29.4884 22.9701 28.4865 21.3981 26.5176 20.3731C27.9516 20.0423 29.0318 19.0992 29.3198 17.1509L29.3191 17.1504L29.319 17.1506ZM24.3047 24.1819C23.6264 26.9072 19.0378 25.434 17.5502 25.0646L18.7553 20.2334C20.2429 20.6047 25.0135 21.3397 24.3048 24.1819H24.3047ZM24.9834 17.1111C24.3647 19.59 20.5456 18.3306 19.3067 18.0218L20.3993 13.6402C21.6382 13.949 25.6279 14.5254 24.9836 17.1111H24.9834Z" fill="#D6DAEA"/>
</g>
<defs>
<clipPath id="clip0_160_5943">
<rect width="39.9955" height="40" fill="white" transform="translate(0.502197)"/>
</clipPath>
</defs>
</svg>
