<svg viewBox="0 0 57 40" fill="none" xmlns="http://www.w3.org/2000/svg">
<g clip-path="url(#clip0_160_5938)">
<path d="M36.5 0C25.3608 0 16.5 8.98733 16.5 20C16.5 31.1392 25.4874 40 36.5 40C47.5126 40 56.5 31.0127 56.5 20C56.5 8.98733 47.5126 0 36.5 0ZM36.5 27.4684C32.4494 27.4684 29.0317 24.0506 29.0317 20C29.0317 15.9494 32.4494 12.5316 36.5 12.5316C40.5506 12.5316 43.9683 15.9494 43.9683 20C43.842 24.0506 40.5506 27.4684 36.5 27.4684Z" fill="#606580"/>
<path d="M16.5 6V35H9.50001L0.5 6H16.5Z" fill="#606580"/>
</g>
<defs>
<clipPath id="clip0_160_5938">
<rect width="56" height="40" fill="white" transform="translate(0.5)"/>
</clipPath>
</defs>
</svg>
