<svg viewBox="0 0 67 40" fill="none" xmlns="http://www.w3.org/2000/svg">
<g clip-path="url(#clip0_160_5941)">
<path d="M66.4994 20C66.4994 30.9744 57.6656 40 46.6994 40C35.8348 40 26.8994 30.9744 26.8994 20C26.8994 9.02564 35.7333 0 46.5979 0C57.6656 0 66.4994 9.02564 66.4994 20Z" fill="#606580"/>
<path d="M39.9985 20.1026C39.9985 18.6667 39.7954 17.2308 39.5923 15.8974H27.4077C27.5092 15.1795 27.7123 14.5641 27.9154 13.7436H38.78C38.5769 13.0256 38.2723 12.3077 37.9677 11.5897H28.7277C29.0323 10.8718 29.4385 10.2564 29.8446 9.4359H36.8508C36.4446 8.71795 35.9369 8 35.3277 7.28205H31.4692C32.0785 6.5641 32.6877 5.94872 33.5 5.23077C30.0477 1.94872 25.3769 0 20.1985 0C9.43538 0.307692 0.5 9.02564 0.5 20C0.5 30.9744 9.33385 40 20.3 40C25.4785 40 30.0477 37.9487 33.6015 34.7692C34.3123 34.1539 34.9215 33.4359 35.6323 32.6154H31.5708C31.0631 32 30.5554 31.2821 30.1492 30.5641H37.0538C37.46 29.9487 37.8661 29.2308 38.1708 28.4103H28.9308C28.6262 27.7949 28.3215 27.0769 28.1185 26.2564H38.9831C39.5923 24.4103 39.9985 22.359 39.9985 20.1026Z" fill="#303655"/>
<path d="M27.3059 25.1283L27.6105 23.2821C27.509 23.2821 27.3059 23.3847 27.1028 23.3847C26.3921 23.3847 26.2905 22.9744 26.3921 22.7693L27.0013 19.077H28.1182L28.4228 17.0257H27.4075L27.6105 15.7949H25.4782C25.4782 15.7949 24.2598 22.7693 24.2598 23.5898C24.2598 24.8206 24.9705 25.4359 25.9859 25.4359C26.5952 25.4359 27.1028 25.2308 27.3059 25.1283Z" fill="#D6DAEA"/>
<path d="M28.0166 21.7437C28.0166 24.718 30.0474 25.436 31.672 25.436C33.1951 25.436 33.9058 25.1283 33.9058 25.1283L34.312 23.077C34.312 23.077 33.1951 23.5898 32.0781 23.5898C29.7428 23.5898 30.1489 21.8462 30.1489 21.8462H34.4135C34.4135 21.8462 34.7181 20.5129 34.7181 19.8975C34.7181 18.5642 34.0074 16.8206 31.672 16.8206C29.6412 16.718 28.0166 19.077 28.0166 21.7437ZM31.672 18.6668C32.7889 18.6668 32.5858 20.0001 32.5858 20.1027H30.2504C30.352 20.0001 30.5551 18.6668 31.672 18.6668Z" fill="#D6DAEA"/>
<path d="M44.9732 25.1285L45.3794 22.7695C45.3794 22.7695 44.364 23.2824 43.5517 23.2824C42.1302 23.2824 41.4194 22.1541 41.4194 20.8208C41.4194 18.2567 42.6379 16.9234 44.1609 16.9234C45.1763 16.9234 46.0902 17.5388 46.0902 17.5388L46.3948 15.2824C46.3948 15.2824 45.1763 14.7695 43.9579 14.7695C41.5209 14.7695 39.1855 16.9234 39.1855 20.9234C39.1855 23.59 40.404 25.3336 42.9425 25.3336C43.8563 25.4362 44.9732 25.1285 44.9732 25.1285Z" fill="#D6DAEA"/>
<path d="M15.8321 16.7178C14.4105 16.7178 13.2936 17.128 13.2936 17.128L12.989 18.9742C12.989 18.9742 13.9028 18.5639 15.3244 18.5639C16.0351 18.5639 16.6444 18.6665 16.6444 19.2819C16.6444 19.6921 16.5428 19.7947 16.5428 19.7947H15.629C13.8013 19.7947 11.8721 20.5126 11.8721 22.9742C11.8721 24.9229 13.0905 25.3332 13.9028 25.3332C15.3244 25.3332 16.0351 24.4101 16.1367 24.4101L16.0351 25.2306H17.7613L18.5736 19.3844C18.5736 16.8203 16.5428 16.7178 15.8321 16.7178ZM16.2382 21.4357C16.2382 21.7434 16.0351 23.487 14.8167 23.487C14.2075 23.487 14.0044 22.9742 14.0044 22.6665C14.0044 22.1537 14.309 21.4357 15.9336 21.4357C16.1367 21.4357 16.2382 21.4357 16.2382 21.4357Z" fill="#D6DAEA"/>
<path d="M20.6039 25.3332C21.1116 25.3332 23.7516 25.4357 23.7516 22.564C23.7516 19.8973 21.2131 20.4101 21.2131 19.3845C21.2131 18.8716 21.6193 18.6665 22.33 18.6665C22.6347 18.6665 23.7516 18.7691 23.7516 18.7691L24.0562 16.8204C24.0562 16.8204 23.3454 16.6152 22.0254 16.6152C20.5024 16.6152 18.8777 17.2306 18.8777 19.3845C18.8777 21.846 21.5177 21.6409 21.5177 22.564C21.5177 23.1793 20.807 23.2819 20.2993 23.2819C19.3854 23.2819 18.37 22.9742 18.37 22.9742L18.0654 24.9229C18.2685 25.1281 18.8777 25.3332 20.6039 25.3332Z" fill="#D6DAEA"/>
<path d="M62.438 15.0771L62.0319 17.9489C62.0319 17.9489 61.2196 16.9233 60.0011 16.9233C58.0719 16.9233 56.4473 19.2823 56.4473 22.0515C56.4473 23.7951 57.2596 25.5387 59.0873 25.5387C60.3057 25.5387 61.118 24.7182 61.118 24.7182L61.0165 25.4361H63.1488L64.6719 15.2823L62.438 15.0771ZM61.4227 20.6156C61.4227 21.7438 60.915 23.2823 59.6965 23.2823C58.9857 23.2823 58.5796 22.6669 58.5796 21.5387C58.5796 19.7951 59.2903 18.7695 60.3057 18.7695C61.0165 18.872 61.4227 19.3848 61.4227 20.6156Z" fill="#D6DAEA"/>
<path d="M4.35889 25.231L5.57736 17.6413L5.78043 25.231H7.20197L9.94351 17.6413L8.82659 25.231H11.0604L12.7866 15.0771H9.33428L7.20197 21.3336L7.10043 15.0771H4.05428L2.32812 25.231H4.35889Z" fill="#D6DAEA"/>
<path d="M36.8513 25.2305C37.4605 21.7434 37.562 18.8716 39.0851 19.3844C39.2882 18.0511 39.5928 17.4357 39.7959 16.9229H39.3897C38.4759 16.9229 37.6636 18.1536 37.6636 18.1536L37.8666 17.0254H35.8359L34.5159 25.2305H36.8513Z" fill="#D6DAEA"/>
<path d="M49.8477 16.7178C48.4262 16.7178 47.3092 17.128 47.3092 17.128L47.0046 18.9742C47.0046 18.9742 47.9185 18.5639 49.34 18.5639C50.0508 18.5639 50.66 18.6665 50.66 19.2819C50.66 19.6921 50.5585 19.7947 50.5585 19.7947H49.6446C47.8169 19.7947 45.8877 20.5126 45.8877 22.9742C45.8877 24.9229 47.1062 25.3332 47.9185 25.3332C49.34 25.3332 50.0508 24.4101 50.1523 24.4101L50.0508 25.2306H51.98L52.7923 19.3844C52.7923 16.8203 50.5585 16.7178 49.8477 16.7178ZM50.3554 21.4357C50.3554 21.7434 50.1523 23.487 48.9338 23.487C48.3246 23.487 48.1215 22.9742 48.1215 22.6665C48.1215 22.1537 48.4262 21.4357 50.0508 21.4357C50.2538 21.4357 50.2538 21.4357 50.3554 21.4357Z" fill="#D6DAEA"/>
<path d="M54.4164 25.2305C55.0257 21.7434 55.1272 18.8716 56.6503 19.3844C56.8534 18.0511 57.158 17.4357 57.3611 16.9229H56.9549C56.0411 16.9229 55.2287 18.1536 55.2287 18.1536L55.4318 17.0254H53.4011L52.0811 25.2305H54.4164Z" fill="#D6DAEA"/>
</g>
<defs>
<clipPath id="clip0_160_5941">
<rect width="66" height="40" fill="white" transform="translate(0.5)"/>
</clipPath>
</defs>
</svg>
