<svg viewBox="0 0 84 24" fill="none" xmlns="http://www.w3.org/2000/svg">
<g clip-path="url(#clip0_160_5945)">
<path d="M74.7965 0.00195312H58.5017C59.4509 5.15262 64.6716 10.0003 70.3669 10.0003H83.3395C83.4977 9.54584 83.4976 8.78838 83.4976 8.33391C83.4976 3.78921 79.5426 0.00195312 74.7965 0.00195312Z" fill="#606580"/>
<path d="M59.488 11V23.9979H67.3635V17.1074H74.2938C78.074 17.1074 81.3817 14.4452 82.4843 11H59.488Z" fill="#303655"/>
<path d="M32.4929 0.00195312V23.998H39.2611C39.2611 23.998 40.9531 23.998 41.876 22.284C46.4906 13.0907 47.875 10.286 47.875 10.286H48.7979V23.998H56.489V0.00195312H49.7209C49.7209 0.00195312 48.0288 0.157781 47.1059 1.71597C43.2604 9.66271 41.1069 13.714 41.1069 13.714H40.184V0.00195312H32.4929Z" fill="#303655"/>
<path d="M0.497803 23.998V0.00195313H8.2093C8.2093 0.00195313 10.3685 0.0019483 11.6024 3.42996C14.687 12.4674 14.9955 13.714 14.9955 13.714C14.9955 13.714 15.6123 11.5325 18.3885 3.42996C19.6223 0.0019483 21.7816 0.00195313 21.7816 0.00195313H29.4931V23.998H21.7816V11.0651H20.8562L16.5378 23.998H13.1447L8.82625 11.0651H7.90087V23.998H0.497803Z" fill="#303655"/>
</g>
<defs>
<clipPath id="clip0_160_5945">
<rect width="83" height="23.9961" fill="white" transform="translate(0.497803 0.00195312)"/>
</clipPath>
</defs>
</svg>
