<svg viewBox="0 0 41 40" fill="none" xmlns="http://www.w3.org/2000/svg">
<g clip-path="url(#clip0_160_5939)">
<path d="M31.9326 25.1515C32.6117 25.4362 32.9027 26.3853 32.9027 26.8599C32.9998 27.6191 32.8057 27.9988 32.5147 27.9988C32.2237 27.9988 31.8356 27.7141 31.4476 27.0497C31.0595 26.3853 30.8655 25.7209 31.0595 25.3413C31.3506 25.1515 31.6416 25.0566 31.9326 25.1515Z" fill="#606580"/>
<path d="M27.9546 28.0938C28.3427 28.0938 28.8277 28.2836 29.3128 28.6632C30.0889 29.3276 30.3799 30.0869 29.9919 30.6563C29.7978 30.941 29.3128 31.1309 28.9247 31.1309C28.4397 31.1309 27.9546 30.941 27.6636 30.6563C26.8875 29.9919 26.6935 29.0428 27.1785 28.4734C27.2755 28.2836 27.5666 28.0938 27.9546 28.0938Z" fill="#606580"/>
<path d="M18.7383 35.5911C8.64903 35.5911 0.5 27.6187 0.5 17.843C0.5 8.06732 8.64903 0 18.7383 0C28.8276 0 36.9766 7.97241 36.9766 17.843C36.9766 21.1648 36.0065 24.2969 34.4543 26.9543C34.3573 27.0492 34.2603 27.0492 34.2603 26.8594C33.5812 22.4936 30.8648 20.1208 26.9843 19.3616C26.5963 19.2667 26.5963 19.0768 27.0814 19.0768C28.3425 18.9819 29.9917 18.9819 30.9618 19.1717C31.0589 18.6972 31.0589 18.2226 31.0589 17.843C31.0589 11.3892 25.6262 6.07422 19.0293 6.07422C12.4325 6.07422 6.99982 11.3892 6.99982 17.843C6.99982 24.2969 12.4325 29.6118 19.0293 29.6118H19.6114C19.4174 28.5678 19.3204 27.5238 19.4174 26.3849C19.4174 25.6256 19.6114 25.5307 19.9024 26.1001C21.5517 28.9474 23.977 31.4151 28.6335 32.4591C32.417 33.3133 36.2005 34.2624 40.372 39.2926C40.7601 39.7671 40.178 40.2417 39.79 39.862C35.6184 36.2555 31.835 35.0217 28.3425 35.0217C23.977 35.1166 21.3576 35.5911 18.7383 35.5911Z" fill="#606580"/>
</g>
<defs>
<clipPath id="clip0_160_5939">
<rect width="40" height="40" fill="white" transform="translate(0.5)"/>
</clipPath>
</defs>
</svg>
