<svg viewBox="0 0 81 40" fill="none" xmlns="http://www.w3.org/2000/svg">
<g clip-path="url(#clip0_160_5940)">
<path d="M70.626 11.4177V21.197H67.12V14.337H63.7442V21.197H60.2383V11.417H70.626V11.4177Z" fill="#606580"/>
<path fill-rule="evenodd" clip-rule="evenodd" d="M53.0372 21.5462C56.176 21.5462 58.5067 19.6295 58.5067 16.7242C58.5067 13.9119 56.7871 12.0859 53.9134 12.0859C52.5871 12.0859 51.4927 12.5509 50.6684 13.3532C50.8652 11.6949 52.2732 10.4842 53.8233 10.4842C54.1811 10.4842 56.8745 10.4785 56.8745 10.4785L58.3972 7.5752C58.3972 7.5752 55.0161 7.65186 53.4442 7.65186C49.8525 7.71453 47.4265 10.9662 47.4265 14.9152C47.4265 19.5165 49.7926 21.5465 53.0375 21.5465L53.0372 21.5462ZM53.0566 14.6572C54.2219 14.6572 55.0298 15.4199 55.0298 16.7239C55.0298 17.8972 54.3119 18.8645 53.0566 18.8672C51.8558 18.8672 51.0479 17.9712 51.0479 16.7439C51.0479 15.4395 51.8558 14.6572 53.0566 14.6572Z" fill="#606580"/>
<path d="M44.5728 17.9233C44.5728 17.9233 43.7448 18.3986 42.5079 18.4886C41.0866 18.5306 39.8198 17.6363 39.8198 16.0473C39.8198 14.4973 40.9376 13.609 42.4724 13.609C43.4135 13.609 44.6585 14.2586 44.6585 14.2586C44.6585 14.2586 45.5694 12.5936 46.0413 11.761C45.1772 11.1086 44.0263 10.751 42.6876 10.751C39.3091 10.751 36.6924 12.945 36.6924 16.0276C36.6924 19.1496 39.1518 21.2926 42.6876 21.2276C43.6759 21.191 45.0393 20.8456 45.8703 20.314L44.5728 17.9233Z" fill="#606580"/>
<path d="M1.46191 8.70703L6.32529 17.3654V22.6467L1.4676 31.288L1.46191 8.70703Z" fill="#BFC2D5"/>
<path d="M20.1348 14.2145L24.6919 11.4325L34.0184 11.4238L20.1348 19.8952V14.2145Z" fill="#BFC2D5"/>
<path d="M20.1097 8.65567L20.1355 20.119L15.2607 17.1357V0L20.1097 8.65567Z" fill="#AAACBA"/>
<path d="M34.0191 11.4237L24.6923 11.4323L20.1097 8.65567L15.2607 0L34.0191 11.4237Z" fill="#BFC2D5"/>
<path d="M20.1355 31.336V25.7743L15.2607 22.8477L15.2634 40.0003L20.1355 31.336Z" fill="#AAACBA"/>
<path d="M24.6811 28.5794L6.32496 17.3654L1.46191 8.70703L33.9992 28.568L24.6811 28.5794Z" fill="#8F93AA"/>
<path d="M15.2634 39.9997L20.1348 31.3354L24.6806 28.5787L33.9987 28.5674L15.2634 39.9997Z" fill="#BFC2D5"/>
<path d="M1.46777 31.2879L15.3006 22.8479L10.65 20.0059L6.32546 22.6465L1.46777 31.2879Z" fill="#8F93AA"/>
<path d="M39.8213 27.7794C39.7142 27.9154 39.5733 28.0181 39.4043 28.0874C39.2309 28.1577 39.0453 28.1935 38.8581 28.1928C38.6719 28.1953 38.4868 28.1643 38.3116 28.1014C38.1542 28.0445 38.0104 27.9558 37.8892 27.8408C37.7696 27.7256 37.6756 27.5866 37.6135 27.4328C37.5462 27.2642 37.5126 27.0842 37.5147 26.9028C37.5147 26.7228 37.5459 26.5561 37.6105 26.3984C37.6696 26.2458 37.7596 26.1069 37.8748 25.9904C37.9897 25.8747 38.1255 25.7816 38.2751 25.7161C38.4301 25.6494 38.5991 25.6134 38.7848 25.6134C38.9849 25.6134 39.1707 25.6384 39.3397 25.6881C39.5087 25.7381 39.6523 25.8214 39.7704 25.9381L39.5649 26.2848C39.4655 26.1951 39.3485 26.1269 39.2212 26.0848C39.1001 26.0459 38.9736 26.0263 38.8464 26.0268C38.7343 26.0268 38.6272 26.0488 38.5231 26.0901C38.4205 26.1313 38.3268 26.1918 38.247 26.2681C38.1654 26.3465 38.1011 26.4409 38.0582 26.5454C38.0097 26.6592 37.9857 26.7818 37.988 26.9054C37.988 27.0418 38.0131 27.1638 38.0609 27.2688C38.1091 27.3774 38.1737 27.4688 38.255 27.5464C38.337 27.6244 38.4324 27.6824 38.5425 27.7214C38.6542 27.763 38.7727 27.7837 38.8919 27.7824C39.0438 27.7824 39.1821 27.7518 39.3002 27.6934C39.4173 27.6371 39.5224 27.5591 39.6101 27.4634L39.8213 27.7794ZM40.4012 28.1344V25.6661H40.8463V27.5051L42.2938 25.6661H42.7389V28.1348H42.2938V26.2958L40.8463 28.1348L40.4012 28.1344ZM45.6873 27.7794C45.5778 27.9166 45.4341 28.0228 45.2706 28.0874C45.0971 28.1577 44.9115 28.1935 44.7241 28.1928C44.538 28.1953 44.353 28.1643 44.178 28.1014C44.0205 28.0445 43.8766 27.9558 43.7553 27.8408C43.6356 27.7256 43.5416 27.5866 43.4795 27.4328C43.4122 27.2642 43.3787 27.0842 43.3808 26.9028C43.3808 26.7228 43.4119 26.5561 43.4765 26.3984C43.5387 26.2401 43.6288 26.1044 43.7409 25.9904C43.8558 25.8747 43.9916 25.7816 44.1411 25.7161C44.3016 25.6457 44.4755 25.6107 44.6508 25.6134C44.851 25.6134 45.0367 25.6384 45.2057 25.6881C45.3747 25.7381 45.5183 25.8214 45.6368 25.9381L45.4309 26.2848C45.3317 26.195 45.2148 26.1269 45.0876 26.0848C44.9665 26.0459 44.84 26.0264 44.7128 26.0268C44.4892 26.0276 44.2744 26.114 44.113 26.2681C44.0322 26.3471 43.968 26.4414 43.9243 26.5454C43.8757 26.6592 43.8518 26.7818 43.854 26.9054C43.854 27.0418 43.8794 27.1638 43.9273 27.2688C43.9751 27.3774 44.0397 27.4688 44.1214 27.5464C44.2031 27.6244 44.2988 27.6824 44.4089 27.7214C44.5186 27.7601 44.6341 27.7824 44.7579 27.7824C44.9102 27.7824 45.0454 27.7518 45.1662 27.6934C45.2833 27.6371 45.3885 27.5591 45.4761 27.4634L45.6873 27.7794ZM45.9155 25.6661H48.1993V26.1044H47.2813V28.1344H46.8362V26.1044H45.9182V25.6661H45.9155Z" fill="#606580"/>
<path fill-rule="evenodd" clip-rule="evenodd" d="M50.2779 28.1094C50.4469 28.0567 50.5904 27.976 50.7143 27.8654L50.5791 27.5214C50.4974 27.5937 50.3876 27.6547 50.2554 27.7047C50.1229 27.7547 49.9736 27.7794 49.8103 27.7794C49.5653 27.7794 49.3625 27.7157 49.2019 27.5854C49.0413 27.4547 48.9542 27.272 48.9342 27.0387H50.8608C50.8813 26.9412 50.8907 26.8417 50.889 26.742C50.8911 26.5838 50.8593 26.4268 50.7959 26.2817C50.7383 26.147 50.6541 26.0253 50.5483 25.9237C50.441 25.8231 50.3146 25.7449 50.1765 25.6937C50.0319 25.6378 49.878 25.6096 49.723 25.6104C49.5145 25.6104 49.3314 25.6464 49.1708 25.713C49.0193 25.7766 48.8824 25.87 48.7682 25.9877C48.6572 26.1048 48.5719 26.2436 48.5178 26.3954C48.4583 26.5569 48.4288 26.7279 48.4305 26.9C48.4305 27.0944 48.464 27.2717 48.5262 27.43C48.5864 27.5834 48.6786 27.7223 48.7966 27.8377C48.9121 27.951 49.0526 28.0374 49.219 28.0984C49.397 28.1613 49.5849 28.1922 49.7738 28.1897C49.945 28.1887 50.1149 28.1613 50.2779 28.1094ZM49.1514 26.2094C49.2892 26.0847 49.4723 26.0237 49.7032 26.0237C49.9201 26.0237 50.0948 26.082 50.2216 26.1987C50.3485 26.315 50.4157 26.476 50.4271 26.681H48.9064C48.9279 26.4995 49.015 26.3317 49.1514 26.2094Z" fill="#606580"/>
<path d="M51.4941 25.666H51.8998L52.8629 26.8893L53.7752 25.666H54.1695V28.1347H53.7244V26.3347L52.8572 27.48H52.8402L51.9392 26.3343V28.1343H51.4941V25.666Z" fill="#606580"/>
<path fill-rule="evenodd" clip-rule="evenodd" d="M55.3798 25.674C55.2448 25.7091 55.1159 25.7642 54.9972 25.8373L55.1154 26.1873C55.2168 26.1373 55.3182 26.0956 55.4196 26.0596C55.521 26.023 55.6505 26.0063 55.8055 26.0063C55.9293 26.0063 56.028 26.0263 56.104 26.065C56.1799 26.101 56.2362 26.1566 56.2757 26.2233C56.3152 26.29 56.3406 26.373 56.3546 26.47C56.3687 26.567 56.3744 26.6723 56.3744 26.7863C56.2832 26.7231 56.1793 26.6804 56.0698 26.6613C55.9642 26.6404 55.8569 26.6292 55.7492 26.628C55.6167 26.628 55.4929 26.6476 55.3744 26.6806C55.2563 26.714 55.1549 26.764 55.0732 26.8306C54.9897 26.8972 54.9223 26.9814 54.8758 27.0773C54.8263 27.1823 54.8013 27.297 54.8028 27.413C54.8028 27.6543 54.8731 27.843 55.0136 27.9763C55.1549 28.1093 55.3406 28.1756 55.5715 28.1756C55.78 28.1756 55.9464 28.1396 56.0729 28.0676C56.1997 27.9953 56.3011 27.9123 56.3741 27.8176V28.137H56.791V26.6226C56.791 26.3006 56.7208 26.0513 56.5769 25.876C56.4363 25.7016 56.1853 25.6126 55.8306 25.6126C55.6729 25.6126 55.5233 25.635 55.3798 25.674ZM56.1241 27.674C56.0227 27.746 55.8898 27.779 55.7268 27.779C55.5829 27.779 55.4705 27.743 55.3918 27.6736C55.3128 27.6016 55.2733 27.507 55.2733 27.3903C55.2733 27.3216 55.2874 27.2633 55.3185 27.2103C55.3496 27.1573 55.3918 27.1163 55.4397 27.083C55.492 27.0481 55.5501 27.0227 55.6114 27.008C55.6763 26.9913 55.7409 26.983 55.8085 26.983C56.0283 26.983 56.2168 27.0356 56.3717 27.1463V27.4596C56.2987 27.5413 56.2155 27.6135 56.1241 27.674ZM60.72 24.7973C60.8101 24.756 60.8941 24.6866 60.9734 24.584L60.7311 24.2373C60.6692 24.3206 60.5989 24.3786 60.5199 24.4093C60.4362 24.4419 60.3494 24.466 60.2609 24.4813L60.1765 24.4963C60.1029 24.509 60.0246 24.523 59.9399 24.537C59.8041 24.562 59.6718 24.6029 59.5457 24.659C59.3456 24.745 59.1853 24.8613 59.0638 25.0083C58.9423 25.1553 58.8472 25.3216 58.7823 25.505C58.7165 25.6907 58.6722 25.8833 58.6501 26.079C58.6274 26.279 58.6163 26.47 58.6163 26.653C58.6163 26.889 58.6471 27.1023 58.709 27.2936C58.7713 27.4853 58.8583 27.646 58.9734 27.7763C59.0892 27.9096 59.2274 28.0096 59.3907 28.0816C59.5541 28.1536 59.7371 28.1896 59.9426 28.1896C60.1314 28.1896 60.3061 28.1536 60.4637 28.087C60.6156 28.0229 60.7535 27.9297 60.8693 27.8126C60.9817 27.6986 61.0721 27.5626 61.1337 27.4103C61.1983 27.2556 61.231 27.0895 61.2297 26.922C61.2297 26.7363 61.2016 26.5673 61.1481 26.4173C61.0988 26.2743 61.0201 26.1431 60.9172 26.032C60.814 25.9227 60.688 25.8374 60.548 25.782C60.3939 25.7215 60.2294 25.6914 60.0638 25.6933C59.9567 25.6933 59.8526 25.7073 59.7512 25.735C59.6525 25.7627 59.5578 25.8028 59.4694 25.8543C59.3836 25.9033 59.3049 25.9638 59.2358 26.0343C59.1682 26.104 59.112 26.1816 59.0725 26.2703H59.0611C59.0694 26.1529 59.0853 26.0362 59.109 25.921C59.1344 25.8016 59.1709 25.6876 59.2191 25.5796C59.2669 25.4716 59.3288 25.3743 59.4048 25.2856C59.4863 25.1961 59.5861 25.1252 59.6976 25.0776C59.8202 25.0195 59.95 24.9776 60.0835 24.953L60.1719 24.937C60.2599 24.921 60.3439 24.9056 60.4242 24.889C60.5313 24.867 60.6297 24.8386 60.72 24.7973ZM59.1538 27.169C59.1104 27.0289 59.0896 26.8829 59.0922 26.7363C59.1111 26.6522 59.1455 26.5723 59.1936 26.5006C59.2432 26.4244 59.305 26.3568 59.3767 26.3006C59.5421 26.1716 59.7466 26.1022 59.9567 26.104C60.2187 26.104 60.4158 26.184 60.5537 26.3426C60.6919 26.5033 60.7595 26.7026 60.7595 26.9443C60.7595 27.0636 60.7368 27.172 60.6976 27.2716C60.6595 27.37 60.602 27.4597 60.5284 27.5355C60.4548 27.6112 60.3667 27.6715 60.2692 27.7126C60.1682 27.757 60.0581 27.7793 59.9342 27.7793C59.8104 27.7793 59.6976 27.7543 59.5936 27.7043C59.4901 27.6553 59.3987 27.5843 59.3258 27.4963C59.2495 27.3982 59.1914 27.2874 59.1541 27.169H59.1538ZM64.643 25.6656H64.1979V28.1343H64.643V25.6656ZM61.8716 25.6656H62.3167V26.4063H62.728C62.9221 26.4063 63.0794 26.4313 63.2066 26.4783C63.3334 26.5256 63.4349 26.5893 63.5108 26.667C63.5868 26.7446 63.6403 26.8363 63.6715 26.9386C63.7023 27.0413 63.7193 27.1466 63.7193 27.2576C63.7193 27.3686 63.7023 27.4743 63.6658 27.5796C63.632 27.685 63.5727 27.7763 63.4938 27.8596C63.4151 27.943 63.308 28.0096 63.1725 28.0596C63.0376 28.1093 62.8743 28.137 62.6772 28.137H61.8689V25.6656H61.8716ZM62.3167 26.819V27.7236H62.6407C62.8632 27.7236 63.0209 27.685 63.1109 27.607C63.2013 27.5293 63.2461 27.4186 63.2461 27.2716C63.2461 27.1216 63.1982 27.0083 63.1082 26.9303C63.0152 26.8526 62.8602 26.8136 62.6464 26.8136H62.3167V26.819Z" fill="#606580"/>
<path d="M67.5869 27.7794C67.4798 27.9154 67.3389 28.0181 67.1699 28.0874C66.9965 28.1577 66.8109 28.1935 66.6237 28.1928C66.4375 28.1953 66.2524 28.1643 66.0772 28.1014C65.9198 28.0446 65.776 27.9558 65.6549 27.8408C65.5352 27.7255 65.4411 27.5865 65.3788 27.4328C65.3117 27.2641 65.2783 27.0841 65.2804 26.9028C65.2804 26.7228 65.3112 26.5561 65.3761 26.3984C65.4352 26.2458 65.5252 26.107 65.6405 25.9904C65.7536 25.8738 65.8881 25.7854 66.0407 25.7161C66.2012 25.6457 66.3751 25.6107 66.5504 25.6134C66.7502 25.6134 66.9363 25.6384 67.1053 25.6881C67.2743 25.7381 67.4179 25.8214 67.536 25.9381L67.3305 26.2848C67.2311 26.1951 67.1141 26.1269 66.9868 26.0848C66.8657 26.0459 66.7392 26.0263 66.612 26.0268C66.4999 26.0268 66.3928 26.0488 66.2884 26.0901C66.1859 26.1314 66.0923 26.1918 66.0126 26.2681C65.9316 26.347 65.8674 26.4413 65.8239 26.5454C65.7753 26.6592 65.7514 26.7818 65.7536 26.9054C65.7536 27.0418 65.7787 27.1638 65.8265 27.2688C65.8744 27.3774 65.9393 27.4688 66.0206 27.5464C66.1026 27.6244 66.198 27.6824 66.3081 27.7214C66.4182 27.7601 66.5337 27.7824 66.6575 27.7824C66.7987 27.7842 66.9383 27.7538 67.0658 27.6934C67.1829 27.6371 67.2881 27.5591 67.3757 27.4634L67.5869 27.7794ZM67.8145 25.6661H70.0989V26.1044H69.1806V28.1344H68.7355V26.1044H67.8178V25.6661H67.8145Z" fill="#606580"/>
<path fill-rule="evenodd" clip-rule="evenodd" d="M71.0279 25.6662H70.5828V29.2329H71.0279V28.0209C71.1179 28.0792 71.225 28.1209 71.3488 28.1485C71.4726 28.1762 71.6022 28.1899 71.7347 28.1899C71.9318 28.1899 72.1092 28.1539 72.2698 28.0875C72.4239 28.0219 72.5635 27.9268 72.6808 27.8075C72.7972 27.6865 72.8872 27.5428 72.9452 27.3855C73.0074 27.2222 73.0385 27.0472 73.0385 26.8615C73.0385 26.6782 73.0104 26.5092 72.9569 26.3565C72.9065 26.2116 72.828 26.0778 72.726 25.9629C72.6258 25.8508 72.5016 25.7626 72.3625 25.7049C72.2104 25.6398 72.0461 25.6076 71.8806 25.6105C71.7066 25.6105 71.5433 25.6439 71.3883 25.7105C71.2334 25.7772 71.1122 25.8572 71.0279 25.9572V25.6662ZM71.3378 26.1239C71.4646 26.0572 71.6022 26.0239 71.7518 26.0239C71.8813 26.0239 71.9967 26.0432 72.1011 26.0849C72.2026 26.1265 72.2869 26.1849 72.3575 26.2625C72.4278 26.3402 72.4813 26.4292 72.5148 26.5342C72.5516 26.6395 72.5683 26.7535 72.5683 26.8782C72.5683 27.0115 72.5459 27.1305 72.5068 27.2415C72.4698 27.3468 72.4113 27.4432 72.3347 27.5245C72.2579 27.6049 72.1648 27.6682 72.0617 27.7102C71.9467 27.7582 71.8229 27.7818 71.6982 27.7795C71.5774 27.7795 71.4646 27.7659 71.3575 27.7382C71.2403 27.7064 71.129 27.6558 71.0282 27.5882V26.3649C71.1069 26.2709 71.2113 26.1905 71.3378 26.1239ZM76.4515 25.6659H76.0064V28.1345H76.4515V25.6659ZM73.6778 25.6659H74.1229V26.4065H74.5338C74.7279 26.4065 74.8859 26.4315 75.0124 26.4785C75.1396 26.5259 75.241 26.5895 75.317 26.6672C75.3929 26.7449 75.4465 26.8365 75.4773 26.9389C75.5084 27.0415 75.5251 27.1469 75.5251 27.2579C75.5251 27.3689 75.5084 27.4745 75.4716 27.5799C75.4381 27.6852 75.3789 27.7765 75.2999 27.8599C75.2212 27.9432 75.1142 28.0099 74.9786 28.0599C74.8437 28.1095 74.6804 28.1372 74.4833 28.1372H73.6751V25.6659H73.6778ZM74.1259 26.8192V27.7239H74.4498C74.6721 27.7239 74.83 27.6852 74.92 27.6072C75.0101 27.5295 75.0552 27.4189 75.0552 27.2719C75.0552 27.1219 75.0074 27.0085 74.9174 26.9305C74.8243 26.8529 74.6694 26.8139 74.4555 26.8139H74.1259V26.8192Z" fill="#606580"/>
<path d="M78.5863 26.856L79.5381 28.1347H78.9919L78.2566 27.136L77.5103 28.1347H76.9923L77.9384 26.878L77.0482 25.666H77.595L78.2737 26.598L78.9631 25.666H79.4819L78.5863 26.856ZM39.4915 31.1857H38.1258V33.2437H37.6807V30.7753H39.9363V33.2437H39.4912L39.4915 31.1857ZM42.4624 31.2133H41.5839L41.5554 31.6293C41.5246 31.9817 41.4825 32.2647 41.4232 32.4807C41.364 32.6973 41.2907 32.8637 41.2064 32.98C41.122 33.0967 41.0233 33.1767 40.9105 33.216C40.7942 33.258 40.6712 33.2787 40.5474 33.277L40.5136 32.8497C40.571 32.851 40.6279 32.8386 40.6796 32.8137C40.7419 32.786 40.8034 32.725 40.8627 32.6337C40.9219 32.539 40.9755 32.406 41.0233 32.2337C41.0712 32.0593 41.1023 31.832 41.119 31.546L41.1642 30.7777H42.9075V33.2463H42.4624V31.2133Z" fill="#606580"/>
<path fill-rule="evenodd" clip-rule="evenodd" d="M44.1076 30.7807C43.9637 30.8194 43.8342 30.8747 43.7244 30.9441L43.8429 31.2937C43.9443 31.2437 44.0457 31.2021 44.1468 31.1661C44.2482 31.1301 44.3777 31.1134 44.5327 31.1134C44.6565 31.1134 44.7552 31.1327 44.8312 31.1714C44.9075 31.2077 44.9637 31.2631 45.0032 31.3297C45.0424 31.3964 45.0678 31.4797 45.0819 31.5764C45.0959 31.6737 45.1016 31.7791 45.1016 31.8927C45.0104 31.8296 44.9065 31.787 44.7971 31.7681C44.6914 31.7471 44.5841 31.736 44.4764 31.7347C44.3443 31.7347 44.2201 31.7541 44.1016 31.7874C43.9835 31.8207 43.8821 31.8707 43.8004 31.9374C43.7169 32.0039 43.6495 32.0882 43.603 32.1841C43.5536 32.289 43.5288 32.4038 43.5303 32.5197C43.5303 32.7607 43.6006 32.9497 43.7412 33.0827C43.8817 33.2157 44.0682 33.2824 44.2991 33.2824C44.5076 33.2824 44.6736 33.2464 44.8004 33.1741C44.9269 33.1021 45.028 33.0187 45.1016 32.9241V33.2434H45.5186V31.7291C45.5186 31.4074 45.448 31.1577 45.3044 30.9831C45.1635 30.8081 44.9128 30.7197 44.5581 30.7197C44.4059 30.7199 44.2544 30.7406 44.1076 30.7807ZM44.8539 32.7801C44.7529 32.8524 44.6204 32.8857 44.457 32.8857C44.3104 32.8857 44.2007 32.8497 44.122 32.7801C44.0431 32.7081 44.0036 32.6134 44.0036 32.4974C44.0036 32.4281 44.0176 32.3697 44.0487 32.3171C44.0795 32.2644 44.122 32.2227 44.1699 32.1894C44.2177 32.1561 44.2767 32.1311 44.3416 32.1144C44.406 32.0978 44.4722 32.0895 44.5387 32.0897C44.7582 32.0897 44.947 32.1424 45.1019 32.2531V32.5664C45.0288 32.6478 44.9454 32.7198 44.8539 32.7801Z" fill="#606580"/>
<path d="M45.9551 30.7754H48.2392V31.2134H47.3209V33.2434H46.8757V31.2134H45.9581V30.7754H45.9551Z" fill="#606580"/>
<path fill-rule="evenodd" clip-rule="evenodd" d="M50.3175 33.218C50.4865 33.1654 50.6301 33.0847 50.7539 32.974L50.6187 32.63C50.537 32.7024 50.4273 32.7634 50.2947 32.8134C50.1625 32.8634 50.0133 32.888 49.8496 32.888C49.605 32.888 49.4022 32.8244 49.2415 32.694C49.0809 32.5637 48.9939 32.3807 48.9738 32.1474H50.9005C50.9199 32.0617 50.9286 31.964 50.9286 31.8507C50.9286 31.6817 50.8975 31.529 50.8356 31.3904C50.7779 31.2557 50.6935 31.1341 50.5876 31.0327C50.4805 30.9319 50.3542 30.8535 50.2161 30.8024C50.0715 30.7465 49.9177 30.7182 49.7626 30.719C49.5541 30.719 49.3711 30.755 49.2104 30.8217C49.0589 30.8851 48.9219 30.9785 48.8078 31.0964C48.6967 31.2135 48.6113 31.3523 48.5568 31.504C48.4976 31.6657 48.4681 31.8366 48.4698 32.0087C48.4698 32.203 48.5033 32.3804 48.5655 32.5387C48.6278 32.6967 48.7205 32.8327 48.8359 32.9464C48.9514 33.06 49.0923 33.146 49.2586 33.207C49.4365 33.27 49.6243 33.3011 49.8131 33.2987C49.9795 33.2987 50.1485 33.2707 50.3175 33.218ZM49.1883 31.3154C49.3262 31.1907 49.5093 31.1297 49.7402 31.1297C49.9601 31.1297 50.1318 31.1907 50.2586 31.3044C50.3851 31.421 50.4527 31.5817 50.4641 31.787H48.9434C48.9648 31.6054 49.0519 31.4378 49.1883 31.3154ZM51.1455 30.7747H51.7087L52.5675 31.9647L51.6495 33.243H51.1033L52.0661 31.9644L51.1455 30.7747ZM52.6772 30.7747H53.1223V33.243H52.6772V30.7747ZM54.7133 33.243L53.7334 31.9644L54.6487 30.7744H54.0965L53.2321 31.9644L54.1615 33.243H54.7133ZM56.7468 33.218C56.9158 33.1654 57.0593 33.0847 57.1832 32.974L57.048 32.63C56.9663 32.7024 56.8565 32.7634 56.7244 32.8134C56.5918 32.8634 56.4426 32.888 56.2792 32.888C56.0343 32.888 55.8315 32.8244 55.6708 32.694C55.5102 32.5637 55.4232 32.3807 55.4031 32.1474H57.3298C57.3495 32.0617 57.3579 31.964 57.3579 31.8507C57.3579 31.6817 57.3271 31.529 57.2648 31.3904C57.2072 31.2558 57.123 31.1342 57.0172 31.0327C56.91 30.9319 56.7836 30.8535 56.6454 30.8024C56.5008 30.7465 56.347 30.7182 56.1919 30.719C55.9837 30.719 55.8003 30.755 55.6397 30.8217C55.4883 30.8852 55.3515 30.9786 55.2374 31.0964C55.1261 31.2133 55.0406 31.3522 54.9864 31.504C54.927 31.6656 54.8976 31.8366 54.8994 32.0087C54.8994 32.203 54.9329 32.3804 54.9951 32.5387C55.057 32.6967 55.1501 32.8327 55.2655 32.9464C55.381 33.06 55.5216 33.146 55.6879 33.207C55.8659 33.27 56.0538 33.3011 56.2428 33.2987C56.4139 33.2974 56.5838 33.2702 56.7468 33.218ZM55.6176 31.3154C55.7558 31.1907 55.9389 31.1297 56.1698 31.1297C56.3867 31.1297 56.561 31.1907 56.6879 31.3044C56.8147 31.421 56.882 31.5817 56.8934 31.787H55.3726C55.3941 31.6054 55.4812 31.4378 55.6176 31.3154ZM59.1634 29.9454C58.9014 29.9454 58.7578 29.801 58.735 29.5127H58.3157C58.3157 29.6234 58.3354 29.7234 58.3719 29.8177C58.4087 29.912 58.4623 29.9924 58.5326 30.059C58.6028 30.1257 58.6932 30.1784 58.7969 30.2197C58.9014 30.2614 59.0225 30.2807 59.1604 30.2807C59.277 30.283 59.3929 30.2622 59.5014 30.2197C59.6028 30.181 59.6872 30.1257 59.7604 30.059C59.8322 29.9911 59.8888 29.9089 59.9264 29.8177C59.9659 29.7234 59.9857 29.6234 59.9857 29.5127H59.569C59.5489 29.801 59.4111 29.9454 59.1634 29.9454ZM57.9606 30.7744V33.243H58.4057L59.8532 31.404V33.243H60.2983V30.7744H59.8532L58.4057 32.6134V30.7744H57.9606Z" fill="#606580"/>
</g>
<defs>
<clipPath id="clip0_160_5940">
<rect width="80" height="40" fill="white" transform="translate(0.5)"/>
</clipPath>
</defs>
</svg>
