<svg viewBox="0 0 79 24" fill="none" xmlns="http://www.w3.org/2000/svg">
<g clip-path="url(#clip0_160_5944)">
<path d="M73.2526 0.342773H68.3491C66.8666 0.342773 65.7263 0.799916 65.0421 2.28563L55.6912 23.6571H62.3052C62.3052 23.6571 63.4456 20.7999 63.6737 20.1142C64.3579 20.1142 70.8579 20.1142 71.7702 20.1142C71.9982 20.9142 72.5684 23.5428 72.5684 23.5428H78.4983L73.2526 0.342773ZM65.4982 15.3142C66.0684 13.9428 68.007 8.79992 68.007 8.79992C68.007 8.9142 68.5772 7.42849 68.8053 6.62849L69.2614 8.68563C69.2614 8.68563 70.5158 14.2856 70.7439 15.4285H65.4982V15.3142Z" fill="#303655"/>
<path d="M56.147 16C56.147 20.8 51.8137 24 45.0856 24C42.2347 24 39.4978 23.4286 38.0154 22.7429L38.9277 17.4857L39.7259 17.8286C41.7786 18.7429 43.147 19.0857 45.6558 19.0857C47.4803 19.0857 49.4189 18.4 49.4189 16.8C49.4189 15.7714 48.6207 15.0857 46.1119 13.9429C43.7172 12.8 40.5242 10.9714 40.5242 7.65714C40.5242 3.08571 44.9715 0 51.2435 0C53.6382 0 55.6909 0.457143 56.9453 1.02857L56.033 6.05714L55.5769 5.6C54.4365 5.14286 52.954 4.68571 50.7874 4.68571C48.3926 4.8 47.2523 5.82857 47.2523 6.74286C47.2523 7.77143 48.6207 8.57143 50.7874 9.6C54.4365 11.3143 56.147 13.2571 56.147 16Z" fill="#303655"/>
<path d="M0.497803 0.571401L0.611838 0.114258H10.4189C11.7873 0.114258 12.8136 0.571401 13.1557 2.05711L15.3224 12.3428C13.1557 6.85711 8.13818 2.39997 0.497803 0.571401Z" fill="#8F93AA"/>
<path d="M29.1203 0.342801L19.1992 23.5428H12.4711L6.76929 4.11423C10.8746 6.7428 14.2956 10.8571 15.55 13.7142L16.2342 16.1142L22.3922 0.228516H29.1203V0.342801Z" fill="#303655"/>
<path d="M31.743 0.228516H38.0149L34.0237 23.5428H27.7517L31.743 0.228516Z" fill="#303655"/>
</g>
<defs>
<clipPath id="clip0_160_5944">
<rect width="78" height="24" fill="white" transform="translate(0.497803)"/>
</clipPath>
</defs>
</svg>
